<mxfile host="app.diagrams.net" modified="2021-06-21T07:13:22.690Z" agent="5.0 (Macintosh; Intel Mac OS X 10_15_7) AppleWebKit/537.36 (KHTML, like Gecko) Chrome/91.0.4472.106 Safari/537.36" etag="YsbI9JsYnYV3kHz9hKk2" version="14.8.0" type="github" pages="2">
  <diagram id="GE7xgT1ViBM0I98MzZY_" name="Page-1">
    <mxGraphModel dx="946" dy="623" grid="1" gridSize="10" guides="1" tooltips="1" connect="1" arrows="1" fold="1" page="1" pageScale="1" pageWidth="850" pageHeight="1100" background="#FAA8A8" math="0" shadow="1">
      <root>
        <mxCell id="0" />
        <mxCell id="1" parent="0" />
        <mxCell id="mH-_44QPLBYqhJ9qM-qt-1" value="" style="shape=table;startSize=0;container=1;collapsible=0;childLayout=tableLayout;fontFamily=Annie Use Your Telescope;fontSource=https%3A%2F%2Ffonts.googleapis.com%2Fcss%3Ffamily%3DAnnie%2BUse%2BYour%2BTelescope;fontStyle=1;fontSize=20;strokeWidth=2;" vertex="1" parent="1">
          <mxGeometry x="270" y="350" width="300" height="694" as="geometry" />
        </mxCell>
        <mxCell id="mH-_44QPLBYqhJ9qM-qt-2" value="" style="shape=partialRectangle;collapsible=0;dropTarget=0;pointerEvents=0;fillColor=none;top=0;left=0;bottom=0;right=0;points=[[0,0.5],[1,0.5]];portConstraint=eastwest;fontFamily=Annie Use Your Telescope;fontSource=https%3A%2F%2Ffonts.googleapis.com%2Fcss%3Ffamily%3DAnnie%2BUse%2BYour%2BTelescope;fontStyle=1;fontSize=20;shadow=1;" vertex="1" parent="mH-_44QPLBYqhJ9qM-qt-1">
          <mxGeometry width="300" height="37" as="geometry" />
        </mxCell>
        <mxCell id="mH-_44QPLBYqhJ9qM-qt-3" value="1" style="shape=partialRectangle;html=1;whiteSpace=wrap;connectable=0;overflow=hidden;top=0;left=0;bottom=0;right=0;fillColor=#CCCCCC;fontFamily=Annie Use Your Telescope;fontSource=https%3A%2F%2Ffonts.googleapis.com%2Fcss%3Ffamily%3DAnnie%2BUse%2BYour%2BTelescope;fontStyle=1;fontSize=20;shadow=1;" vertex="1" parent="mH-_44QPLBYqhJ9qM-qt-2">
          <mxGeometry width="33" height="37" as="geometry" />
        </mxCell>
        <mxCell id="mH-_44QPLBYqhJ9qM-qt-4" value="2" style="shape=partialRectangle;html=1;whiteSpace=wrap;connectable=0;overflow=hidden;fillColor=none;top=0;left=0;bottom=0;right=0;fontFamily=Annie Use Your Telescope;fontSource=https%3A%2F%2Ffonts.googleapis.com%2Fcss%3Ffamily%3DAnnie%2BUse%2BYour%2BTelescope;fontStyle=1;fontSize=20;shadow=1;" vertex="1" parent="mH-_44QPLBYqhJ9qM-qt-2">
          <mxGeometry x="33" width="34" height="37" as="geometry" />
        </mxCell>
        <mxCell id="mH-_44QPLBYqhJ9qM-qt-5" value="3" style="shape=partialRectangle;html=1;whiteSpace=wrap;connectable=0;overflow=hidden;fillColor=none;top=0;left=0;bottom=0;right=0;fontFamily=Annie Use Your Telescope;fontSource=https%3A%2F%2Ffonts.googleapis.com%2Fcss%3Ffamily%3DAnnie%2BUse%2BYour%2BTelescope;fontStyle=1;fontSize=20;shadow=1;" vertex="1" parent="mH-_44QPLBYqhJ9qM-qt-2">
          <mxGeometry x="67" width="33" height="37" as="geometry" />
        </mxCell>
        <mxCell id="mH-_44QPLBYqhJ9qM-qt-6" value="4" style="shape=partialRectangle;html=1;whiteSpace=wrap;connectable=0;overflow=hidden;fillColor=none;top=0;left=0;bottom=0;right=0;fontFamily=Annie Use Your Telescope;fontSource=https%3A%2F%2Ffonts.googleapis.com%2Fcss%3Ffamily%3DAnnie%2BUse%2BYour%2BTelescope;fontStyle=1;fontSize=20;shadow=1;" vertex="1" parent="mH-_44QPLBYqhJ9qM-qt-2">
          <mxGeometry x="100" width="33" height="37" as="geometry" />
        </mxCell>
        <mxCell id="mH-_44QPLBYqhJ9qM-qt-7" value="5" style="shape=partialRectangle;html=1;whiteSpace=wrap;connectable=0;overflow=hidden;fillColor=none;top=0;left=0;bottom=0;right=0;fontFamily=Annie Use Your Telescope;fontSource=https%3A%2F%2Ffonts.googleapis.com%2Fcss%3Ffamily%3DAnnie%2BUse%2BYour%2BTelescope;fontStyle=1;fontSize=20;shadow=1;" vertex="1" parent="mH-_44QPLBYqhJ9qM-qt-2">
          <mxGeometry x="133" width="33" height="37" as="geometry" />
        </mxCell>
        <mxCell id="mH-_44QPLBYqhJ9qM-qt-8" value="6" style="shape=partialRectangle;html=1;whiteSpace=wrap;connectable=0;overflow=hidden;fillColor=none;top=0;left=0;bottom=0;right=0;fontFamily=Annie Use Your Telescope;fontSource=https%3A%2F%2Ffonts.googleapis.com%2Fcss%3Ffamily%3DAnnie%2BUse%2BYour%2BTelescope;fontStyle=1;fontSize=20;shadow=1;" vertex="1" parent="mH-_44QPLBYqhJ9qM-qt-2">
          <mxGeometry x="166" width="34" height="37" as="geometry" />
        </mxCell>
        <mxCell id="mH-_44QPLBYqhJ9qM-qt-9" value="7" style="shape=partialRectangle;html=1;whiteSpace=wrap;connectable=0;overflow=hidden;fillColor=none;top=0;left=0;bottom=0;right=0;fontFamily=Annie Use Your Telescope;fontSource=https%3A%2F%2Ffonts.googleapis.com%2Fcss%3Ffamily%3DAnnie%2BUse%2BYour%2BTelescope;fontStyle=1;fontSize=20;shadow=1;" vertex="1" parent="mH-_44QPLBYqhJ9qM-qt-2">
          <mxGeometry x="200" width="33" height="37" as="geometry" />
        </mxCell>
        <mxCell id="mH-_44QPLBYqhJ9qM-qt-10" value="8" style="shape=partialRectangle;html=1;whiteSpace=wrap;connectable=0;overflow=hidden;fillColor=none;top=0;left=0;bottom=0;right=0;fontFamily=Annie Use Your Telescope;fontSource=https%3A%2F%2Ffonts.googleapis.com%2Fcss%3Ffamily%3DAnnie%2BUse%2BYour%2BTelescope;fontStyle=1;fontSize=20;shadow=1;" vertex="1" parent="mH-_44QPLBYqhJ9qM-qt-2">
          <mxGeometry x="233" width="34" height="37" as="geometry" />
        </mxCell>
        <mxCell id="mH-_44QPLBYqhJ9qM-qt-11" value="9" style="shape=partialRectangle;html=1;whiteSpace=wrap;connectable=0;overflow=hidden;fillColor=none;top=0;left=0;bottom=0;right=0;fontFamily=Annie Use Your Telescope;fontSource=https%3A%2F%2Ffonts.googleapis.com%2Fcss%3Ffamily%3DAnnie%2BUse%2BYour%2BTelescope;fontStyle=1;fontSize=20;shadow=1;" vertex="1" parent="mH-_44QPLBYqhJ9qM-qt-2">
          <mxGeometry x="267" width="33" height="37" as="geometry" />
        </mxCell>
        <mxCell id="mH-_44QPLBYqhJ9qM-qt-12" value="" style="shape=partialRectangle;collapsible=0;dropTarget=0;pointerEvents=0;fillColor=none;top=0;left=0;bottom=0;right=0;points=[[0,0.5],[1,0.5]];portConstraint=eastwest;fontFamily=Annie Use Your Telescope;fontSource=https%3A%2F%2Ffonts.googleapis.com%2Fcss%3Ffamily%3DAnnie%2BUse%2BYour%2BTelescope;fontStyle=1;fontSize=20;shadow=1;" vertex="1" parent="mH-_44QPLBYqhJ9qM-qt-1">
          <mxGeometry y="37" width="300" height="36" as="geometry" />
        </mxCell>
        <mxCell id="mH-_44QPLBYqhJ9qM-qt-13" value="1" style="shape=partialRectangle;html=1;whiteSpace=wrap;connectable=0;overflow=hidden;top=0;left=0;bottom=0;right=0;strokeColor=none;fillColor=#CCCCCC;fontFamily=Annie Use Your Telescope;fontSource=https%3A%2F%2Ffonts.googleapis.com%2Fcss%3Ffamily%3DAnnie%2BUse%2BYour%2BTelescope;fontStyle=1;fontSize=20;shadow=1;" vertex="1" parent="mH-_44QPLBYqhJ9qM-qt-12">
          <mxGeometry width="33" height="36" as="geometry" />
        </mxCell>
        <mxCell id="mH-_44QPLBYqhJ9qM-qt-14" value="1" style="shape=partialRectangle;html=1;whiteSpace=wrap;connectable=0;overflow=hidden;fillColor=none;top=0;left=0;bottom=0;right=0;fontFamily=Annie Use Your Telescope;fontSource=https%3A%2F%2Ffonts.googleapis.com%2Fcss%3Ffamily%3DAnnie%2BUse%2BYour%2BTelescope;fontStyle=1;fontSize=20;shadow=1;" vertex="1" parent="mH-_44QPLBYqhJ9qM-qt-12">
          <mxGeometry x="33" width="34" height="36" as="geometry" />
        </mxCell>
        <mxCell id="mH-_44QPLBYqhJ9qM-qt-15" value="1" style="shape=partialRectangle;html=1;whiteSpace=wrap;connectable=0;overflow=hidden;fillColor=none;top=0;left=0;bottom=0;right=0;fontFamily=Annie Use Your Telescope;fontSource=https%3A%2F%2Ffonts.googleapis.com%2Fcss%3Ffamily%3DAnnie%2BUse%2BYour%2BTelescope;fontStyle=1;fontSize=20;shadow=1;" vertex="1" parent="mH-_44QPLBYqhJ9qM-qt-12">
          <mxGeometry x="67" width="33" height="36" as="geometry" />
        </mxCell>
        <mxCell id="mH-_44QPLBYqhJ9qM-qt-16" value="2" style="shape=partialRectangle;html=1;whiteSpace=wrap;connectable=0;overflow=hidden;fillColor=none;top=0;left=0;bottom=0;right=0;fontFamily=Annie Use Your Telescope;fontSource=https%3A%2F%2Ffonts.googleapis.com%2Fcss%3Ffamily%3DAnnie%2BUse%2BYour%2BTelescope;fontStyle=1;fontSize=20;shadow=1;" vertex="1" parent="mH-_44QPLBYqhJ9qM-qt-12">
          <mxGeometry x="100" width="33" height="36" as="geometry" />
        </mxCell>
        <mxCell id="mH-_44QPLBYqhJ9qM-qt-17" value="1" style="shape=partialRectangle;html=1;whiteSpace=wrap;connectable=0;overflow=hidden;fillColor=none;top=0;left=0;bottom=0;right=0;fontFamily=Annie Use Your Telescope;fontSource=https%3A%2F%2Ffonts.googleapis.com%2Fcss%3Ffamily%3DAnnie%2BUse%2BYour%2BTelescope;fontStyle=1;fontSize=20;shadow=1;" vertex="1" parent="mH-_44QPLBYqhJ9qM-qt-12">
          <mxGeometry x="133" width="33" height="36" as="geometry" />
        </mxCell>
        <mxCell id="mH-_44QPLBYqhJ9qM-qt-18" value="3" style="shape=partialRectangle;html=1;whiteSpace=wrap;connectable=0;overflow=hidden;fillColor=none;top=0;left=0;bottom=0;right=0;fontFamily=Annie Use Your Telescope;fontSource=https%3A%2F%2Ffonts.googleapis.com%2Fcss%3Ffamily%3DAnnie%2BUse%2BYour%2BTelescope;fontStyle=1;fontSize=20;shadow=1;" vertex="1" parent="mH-_44QPLBYqhJ9qM-qt-12">
          <mxGeometry x="166" width="34" height="36" as="geometry" />
        </mxCell>
        <mxCell id="mH-_44QPLBYqhJ9qM-qt-19" value="1" style="shape=partialRectangle;html=1;whiteSpace=wrap;connectable=0;overflow=hidden;fillColor=none;top=0;left=0;bottom=0;right=0;fontFamily=Annie Use Your Telescope;fontSource=https%3A%2F%2Ffonts.googleapis.com%2Fcss%3Ffamily%3DAnnie%2BUse%2BYour%2BTelescope;fontStyle=1;fontSize=20;shadow=1;" vertex="1" parent="mH-_44QPLBYqhJ9qM-qt-12">
          <mxGeometry x="200" width="33" height="36" as="geometry" />
        </mxCell>
        <mxCell id="mH-_44QPLBYqhJ9qM-qt-20" value="4" style="shape=partialRectangle;html=1;whiteSpace=wrap;connectable=0;overflow=hidden;fillColor=none;top=0;left=0;bottom=0;right=0;fontFamily=Annie Use Your Telescope;fontSource=https%3A%2F%2Ffonts.googleapis.com%2Fcss%3Ffamily%3DAnnie%2BUse%2BYour%2BTelescope;fontStyle=1;fontSize=20;shadow=1;" vertex="1" parent="mH-_44QPLBYqhJ9qM-qt-12">
          <mxGeometry x="233" width="34" height="36" as="geometry" />
        </mxCell>
        <mxCell id="mH-_44QPLBYqhJ9qM-qt-21" value="1" style="shape=partialRectangle;html=1;whiteSpace=wrap;connectable=0;overflow=hidden;fillColor=none;top=0;left=0;bottom=0;right=0;fontFamily=Annie Use Your Telescope;fontSource=https%3A%2F%2Ffonts.googleapis.com%2Fcss%3Ffamily%3DAnnie%2BUse%2BYour%2BTelescope;fontStyle=1;fontSize=20;shadow=1;" vertex="1" parent="mH-_44QPLBYqhJ9qM-qt-12">
          <mxGeometry x="267" width="33" height="36" as="geometry" />
        </mxCell>
        <mxCell id="mH-_44QPLBYqhJ9qM-qt-22" value="" style="shape=partialRectangle;collapsible=0;dropTarget=0;pointerEvents=0;fillColor=none;top=0;left=0;bottom=0;right=0;points=[[0,0.5],[1,0.5]];portConstraint=eastwest;fontFamily=Annie Use Your Telescope;fontSource=https%3A%2F%2Ffonts.googleapis.com%2Fcss%3Ffamily%3DAnnie%2BUse%2BYour%2BTelescope;fontStyle=1;fontSize=20;shadow=1;" vertex="1" parent="mH-_44QPLBYqhJ9qM-qt-1">
          <mxGeometry y="73" width="300" height="37" as="geometry" />
        </mxCell>
        <mxCell id="mH-_44QPLBYqhJ9qM-qt-23" value="5" style="shape=partialRectangle;html=1;whiteSpace=wrap;connectable=0;overflow=hidden;fillColor=none;top=0;left=0;bottom=0;right=0;fontFamily=Annie Use Your Telescope;fontSource=https%3A%2F%2Ffonts.googleapis.com%2Fcss%3Ffamily%3DAnnie%2BUse%2BYour%2BTelescope;fontStyle=1;fontSize=20;shadow=1;" vertex="1" parent="mH-_44QPLBYqhJ9qM-qt-22">
          <mxGeometry width="33" height="37" as="geometry" />
        </mxCell>
        <mxCell id="mH-_44QPLBYqhJ9qM-qt-24" value="1" style="shape=partialRectangle;html=1;whiteSpace=wrap;connectable=0;overflow=hidden;fillColor=none;top=0;left=0;bottom=0;right=0;fontFamily=Annie Use Your Telescope;fontSource=https%3A%2F%2Ffonts.googleapis.com%2Fcss%3Ffamily%3DAnnie%2BUse%2BYour%2BTelescope;fontStyle=1;fontSize=20;shadow=1;" vertex="1" parent="mH-_44QPLBYqhJ9qM-qt-22">
          <mxGeometry x="33" width="34" height="37" as="geometry" />
        </mxCell>
        <mxCell id="mH-_44QPLBYqhJ9qM-qt-25" value="6" style="shape=partialRectangle;html=1;whiteSpace=wrap;connectable=0;overflow=hidden;fillColor=none;top=0;left=0;bottom=0;right=0;fontFamily=Annie Use Your Telescope;fontSource=https%3A%2F%2Ffonts.googleapis.com%2Fcss%3Ffamily%3DAnnie%2BUse%2BYour%2BTelescope;fontStyle=1;fontSize=20;shadow=1;" vertex="1" parent="mH-_44QPLBYqhJ9qM-qt-22">
          <mxGeometry x="67" width="33" height="37" as="geometry" />
        </mxCell>
        <mxCell id="mH-_44QPLBYqhJ9qM-qt-26" value="1" style="shape=partialRectangle;html=1;whiteSpace=wrap;connectable=0;overflow=hidden;fillColor=none;top=0;left=0;bottom=0;right=0;fontFamily=Annie Use Your Telescope;fontSource=https%3A%2F%2Ffonts.googleapis.com%2Fcss%3Ffamily%3DAnnie%2BUse%2BYour%2BTelescope;fontStyle=1;fontSize=20;shadow=1;" vertex="1" parent="mH-_44QPLBYqhJ9qM-qt-22">
          <mxGeometry x="100" width="33" height="37" as="geometry" />
        </mxCell>
        <mxCell id="mH-_44QPLBYqhJ9qM-qt-27" value="7" style="shape=partialRectangle;html=1;whiteSpace=wrap;connectable=0;overflow=hidden;fillColor=none;top=0;left=0;bottom=0;right=0;fontFamily=Annie Use Your Telescope;fontSource=https%3A%2F%2Ffonts.googleapis.com%2Fcss%3Ffamily%3DAnnie%2BUse%2BYour%2BTelescope;fontStyle=1;fontSize=20;shadow=1;" vertex="1" parent="mH-_44QPLBYqhJ9qM-qt-22">
          <mxGeometry x="133" width="33" height="37" as="geometry" />
        </mxCell>
        <mxCell id="mH-_44QPLBYqhJ9qM-qt-28" value="1" style="shape=partialRectangle;html=1;whiteSpace=wrap;connectable=0;overflow=hidden;fillColor=none;top=0;left=0;bottom=0;right=0;fontFamily=Annie Use Your Telescope;fontSource=https%3A%2F%2Ffonts.googleapis.com%2Fcss%3Ffamily%3DAnnie%2BUse%2BYour%2BTelescope;fontStyle=1;fontSize=20;shadow=1;" vertex="1" parent="mH-_44QPLBYqhJ9qM-qt-22">
          <mxGeometry x="166" width="34" height="37" as="geometry" />
        </mxCell>
        <mxCell id="mH-_44QPLBYqhJ9qM-qt-29" value="8" style="shape=partialRectangle;html=1;whiteSpace=wrap;connectable=0;overflow=hidden;fillColor=none;top=0;left=0;bottom=0;right=0;fontFamily=Annie Use Your Telescope;fontSource=https%3A%2F%2Ffonts.googleapis.com%2Fcss%3Ffamily%3DAnnie%2BUse%2BYour%2BTelescope;fontStyle=1;fontSize=20;shadow=1;" vertex="1" parent="mH-_44QPLBYqhJ9qM-qt-22">
          <mxGeometry x="200" width="33" height="37" as="geometry" />
        </mxCell>
        <mxCell id="mH-_44QPLBYqhJ9qM-qt-30" value="1" style="shape=partialRectangle;html=1;whiteSpace=wrap;connectable=0;overflow=hidden;fillColor=none;top=0;left=0;bottom=0;right=0;fontFamily=Annie Use Your Telescope;fontSource=https%3A%2F%2Ffonts.googleapis.com%2Fcss%3Ffamily%3DAnnie%2BUse%2BYour%2BTelescope;fontStyle=1;fontSize=20;shadow=1;" vertex="1" parent="mH-_44QPLBYqhJ9qM-qt-22">
          <mxGeometry x="233" width="34" height="37" as="geometry" />
        </mxCell>
        <mxCell id="mH-_44QPLBYqhJ9qM-qt-31" value="9" style="shape=partialRectangle;html=1;whiteSpace=wrap;connectable=0;overflow=hidden;fillColor=none;top=0;left=0;bottom=0;right=0;fontFamily=Annie Use Your Telescope;fontSource=https%3A%2F%2Ffonts.googleapis.com%2Fcss%3Ffamily%3DAnnie%2BUse%2BYour%2BTelescope;fontStyle=1;fontSize=20;shadow=1;" vertex="1" parent="mH-_44QPLBYqhJ9qM-qt-22">
          <mxGeometry x="267" width="33" height="37" as="geometry" />
        </mxCell>
        <mxCell id="mH-_44QPLBYqhJ9qM-qt-32" value="" style="shape=partialRectangle;collapsible=0;dropTarget=0;pointerEvents=0;fillColor=none;top=0;left=0;bottom=0;right=0;points=[[0,0.5],[1,0.5]];portConstraint=eastwest;fontFamily=Annie Use Your Telescope;fontSource=https%3A%2F%2Ffonts.googleapis.com%2Fcss%3Ffamily%3DAnnie%2BUse%2BYour%2BTelescope;fontStyle=1;fontSize=20;shadow=1;" vertex="1" parent="mH-_44QPLBYqhJ9qM-qt-1">
          <mxGeometry y="110" width="300" height="36" as="geometry" />
        </mxCell>
        <mxCell id="mH-_44QPLBYqhJ9qM-qt-33" value="2" style="shape=partialRectangle;html=1;whiteSpace=wrap;connectable=0;overflow=hidden;fillColor=none;top=0;left=0;bottom=0;right=0;fontFamily=Annie Use Your Telescope;fontSource=https%3A%2F%2Ffonts.googleapis.com%2Fcss%3Ffamily%3DAnnie%2BUse%2BYour%2BTelescope;fontStyle=1;fontSize=20;shadow=1;" vertex="1" parent="mH-_44QPLBYqhJ9qM-qt-32">
          <mxGeometry width="33" height="36" as="geometry" />
        </mxCell>
        <mxCell id="mH-_44QPLBYqhJ9qM-qt-34" value="1" style="shape=partialRectangle;html=1;whiteSpace=wrap;connectable=0;overflow=hidden;fillColor=none;top=0;left=0;bottom=0;right=0;fontFamily=Annie Use Your Telescope;fontSource=https%3A%2F%2Ffonts.googleapis.com%2Fcss%3Ffamily%3DAnnie%2BUse%2BYour%2BTelescope;fontStyle=1;fontSize=20;shadow=1;" vertex="1" parent="mH-_44QPLBYqhJ9qM-qt-32">
          <mxGeometry x="33" width="34" height="36" as="geometry" />
        </mxCell>
        <mxCell id="mH-_44QPLBYqhJ9qM-qt-35" value="2" style="shape=partialRectangle;html=1;whiteSpace=wrap;connectable=0;overflow=hidden;fillColor=none;top=0;left=0;bottom=0;right=0;fontFamily=Annie Use Your Telescope;fontSource=https%3A%2F%2Ffonts.googleapis.com%2Fcss%3Ffamily%3DAnnie%2BUse%2BYour%2BTelescope;fontStyle=1;fontSize=20;shadow=1;" vertex="1" parent="mH-_44QPLBYqhJ9qM-qt-32">
          <mxGeometry x="67" width="33" height="36" as="geometry" />
        </mxCell>
        <mxCell id="mH-_44QPLBYqhJ9qM-qt-36" value="2" style="shape=partialRectangle;html=1;whiteSpace=wrap;connectable=0;overflow=hidden;fillColor=none;top=0;left=0;bottom=0;right=0;fontFamily=Annie Use Your Telescope;fontSource=https%3A%2F%2Ffonts.googleapis.com%2Fcss%3Ffamily%3DAnnie%2BUse%2BYour%2BTelescope;fontStyle=1;fontSize=20;shadow=1;" vertex="1" parent="mH-_44QPLBYqhJ9qM-qt-32">
          <mxGeometry x="100" width="33" height="36" as="geometry" />
        </mxCell>
        <mxCell id="mH-_44QPLBYqhJ9qM-qt-37" value="2" style="shape=partialRectangle;html=1;whiteSpace=wrap;connectable=0;overflow=hidden;fillColor=none;top=0;left=0;bottom=0;right=0;fontFamily=Annie Use Your Telescope;fontSource=https%3A%2F%2Ffonts.googleapis.com%2Fcss%3Ffamily%3DAnnie%2BUse%2BYour%2BTelescope;fontStyle=1;fontSize=20;shadow=1;" vertex="1" parent="mH-_44QPLBYqhJ9qM-qt-32">
          <mxGeometry x="133" width="33" height="36" as="geometry" />
        </mxCell>
        <mxCell id="mH-_44QPLBYqhJ9qM-qt-38" value="3" style="shape=partialRectangle;html=1;whiteSpace=wrap;connectable=0;overflow=hidden;fillColor=none;top=0;left=0;bottom=0;right=0;fontFamily=Annie Use Your Telescope;fontSource=https%3A%2F%2Ffonts.googleapis.com%2Fcss%3Ffamily%3DAnnie%2BUse%2BYour%2BTelescope;fontStyle=1;fontSize=20;shadow=1;" vertex="1" parent="mH-_44QPLBYqhJ9qM-qt-32">
          <mxGeometry x="166" width="34" height="36" as="geometry" />
        </mxCell>
        <mxCell id="mH-_44QPLBYqhJ9qM-qt-39" value="2" style="shape=partialRectangle;html=1;whiteSpace=wrap;connectable=0;overflow=hidden;fillColor=none;top=0;left=0;bottom=0;right=0;fontFamily=Annie Use Your Telescope;fontSource=https%3A%2F%2Ffonts.googleapis.com%2Fcss%3Ffamily%3DAnnie%2BUse%2BYour%2BTelescope;fontStyle=1;fontSize=20;shadow=1;" vertex="1" parent="mH-_44QPLBYqhJ9qM-qt-32">
          <mxGeometry x="200" width="33" height="36" as="geometry" />
        </mxCell>
        <mxCell id="mH-_44QPLBYqhJ9qM-qt-40" value="4" style="shape=partialRectangle;html=1;whiteSpace=wrap;connectable=0;overflow=hidden;fillColor=none;top=0;left=0;bottom=0;right=0;fontFamily=Annie Use Your Telescope;fontSource=https%3A%2F%2Ffonts.googleapis.com%2Fcss%3Ffamily%3DAnnie%2BUse%2BYour%2BTelescope;fontStyle=1;fontSize=20;shadow=1;" vertex="1" parent="mH-_44QPLBYqhJ9qM-qt-32">
          <mxGeometry x="233" width="34" height="36" as="geometry" />
        </mxCell>
        <mxCell id="mH-_44QPLBYqhJ9qM-qt-41" value="2" style="shape=partialRectangle;html=1;whiteSpace=wrap;connectable=0;overflow=hidden;fillColor=none;top=0;left=0;bottom=0;right=0;fontFamily=Annie Use Your Telescope;fontSource=https%3A%2F%2Ffonts.googleapis.com%2Fcss%3Ffamily%3DAnnie%2BUse%2BYour%2BTelescope;fontStyle=1;fontSize=20;shadow=1;" vertex="1" parent="mH-_44QPLBYqhJ9qM-qt-32">
          <mxGeometry x="267" width="33" height="36" as="geometry" />
        </mxCell>
        <mxCell id="mH-_44QPLBYqhJ9qM-qt-42" value="" style="shape=partialRectangle;collapsible=0;dropTarget=0;pointerEvents=0;fillColor=none;top=0;left=0;bottom=0;right=0;points=[[0,0.5],[1,0.5]];portConstraint=eastwest;fontFamily=Annie Use Your Telescope;fontSource=https%3A%2F%2Ffonts.googleapis.com%2Fcss%3Ffamily%3DAnnie%2BUse%2BYour%2BTelescope;fontStyle=1;fontSize=20;shadow=1;" vertex="1" parent="mH-_44QPLBYqhJ9qM-qt-1">
          <mxGeometry y="146" width="300" height="37" as="geometry" />
        </mxCell>
        <mxCell id="mH-_44QPLBYqhJ9qM-qt-43" value="5" style="shape=partialRectangle;html=1;whiteSpace=wrap;connectable=0;overflow=hidden;fillColor=none;top=0;left=0;bottom=0;right=0;fontFamily=Annie Use Your Telescope;fontSource=https%3A%2F%2Ffonts.googleapis.com%2Fcss%3Ffamily%3DAnnie%2BUse%2BYour%2BTelescope;fontStyle=1;fontSize=20;shadow=1;" vertex="1" parent="mH-_44QPLBYqhJ9qM-qt-42">
          <mxGeometry width="33" height="37" as="geometry" />
        </mxCell>
        <mxCell id="mH-_44QPLBYqhJ9qM-qt-44" value="2" style="shape=partialRectangle;html=1;whiteSpace=wrap;connectable=0;overflow=hidden;fillColor=none;top=0;left=0;bottom=0;right=0;fontFamily=Annie Use Your Telescope;fontSource=https%3A%2F%2Ffonts.googleapis.com%2Fcss%3Ffamily%3DAnnie%2BUse%2BYour%2BTelescope;fontStyle=1;fontSize=20;shadow=1;" vertex="1" parent="mH-_44QPLBYqhJ9qM-qt-42">
          <mxGeometry x="33" width="34" height="37" as="geometry" />
        </mxCell>
        <mxCell id="mH-_44QPLBYqhJ9qM-qt-45" value="6" style="shape=partialRectangle;html=1;whiteSpace=wrap;connectable=0;overflow=hidden;fillColor=none;top=0;left=0;bottom=0;right=0;fontFamily=Annie Use Your Telescope;fontSource=https%3A%2F%2Ffonts.googleapis.com%2Fcss%3Ffamily%3DAnnie%2BUse%2BYour%2BTelescope;fontStyle=1;fontSize=20;shadow=1;" vertex="1" parent="mH-_44QPLBYqhJ9qM-qt-42">
          <mxGeometry x="67" width="33" height="37" as="geometry" />
        </mxCell>
        <mxCell id="mH-_44QPLBYqhJ9qM-qt-46" value="2" style="shape=partialRectangle;html=1;whiteSpace=wrap;connectable=0;overflow=hidden;fillColor=none;top=0;left=0;bottom=0;right=0;fontFamily=Annie Use Your Telescope;fontSource=https%3A%2F%2Ffonts.googleapis.com%2Fcss%3Ffamily%3DAnnie%2BUse%2BYour%2BTelescope;fontStyle=1;fontSize=20;shadow=1;" vertex="1" parent="mH-_44QPLBYqhJ9qM-qt-42">
          <mxGeometry x="100" width="33" height="37" as="geometry" />
        </mxCell>
        <mxCell id="mH-_44QPLBYqhJ9qM-qt-47" value="7" style="shape=partialRectangle;html=1;whiteSpace=wrap;connectable=0;overflow=hidden;top=0;left=0;bottom=0;right=0;fillColor=#CCCCCC;fontFamily=Annie Use Your Telescope;fontSource=https%3A%2F%2Ffonts.googleapis.com%2Fcss%3Ffamily%3DAnnie%2BUse%2BYour%2BTelescope;fontStyle=1;fontSize=20;shadow=1;" vertex="1" parent="mH-_44QPLBYqhJ9qM-qt-42">
          <mxGeometry x="133" width="33" height="37" as="geometry" />
        </mxCell>
        <mxCell id="mH-_44QPLBYqhJ9qM-qt-48" value="2" style="shape=partialRectangle;html=1;whiteSpace=wrap;connectable=0;overflow=hidden;fillColor=none;top=0;left=0;bottom=0;right=0;fontFamily=Annie Use Your Telescope;fontSource=https%3A%2F%2Ffonts.googleapis.com%2Fcss%3Ffamily%3DAnnie%2BUse%2BYour%2BTelescope;fontStyle=1;fontSize=20;shadow=1;" vertex="1" parent="mH-_44QPLBYqhJ9qM-qt-42">
          <mxGeometry x="166" width="34" height="37" as="geometry" />
        </mxCell>
        <mxCell id="mH-_44QPLBYqhJ9qM-qt-49" value="8" style="shape=partialRectangle;html=1;whiteSpace=wrap;connectable=0;overflow=hidden;fillColor=none;top=0;left=0;bottom=0;right=0;fontFamily=Annie Use Your Telescope;fontSource=https%3A%2F%2Ffonts.googleapis.com%2Fcss%3Ffamily%3DAnnie%2BUse%2BYour%2BTelescope;fontStyle=1;fontSize=20;shadow=1;" vertex="1" parent="mH-_44QPLBYqhJ9qM-qt-42">
          <mxGeometry x="200" width="33" height="37" as="geometry" />
        </mxCell>
        <mxCell id="mH-_44QPLBYqhJ9qM-qt-50" value="2" style="shape=partialRectangle;html=1;whiteSpace=wrap;connectable=0;overflow=hidden;fillColor=none;top=0;left=0;bottom=0;right=0;fontFamily=Annie Use Your Telescope;fontSource=https%3A%2F%2Ffonts.googleapis.com%2Fcss%3Ffamily%3DAnnie%2BUse%2BYour%2BTelescope;fontStyle=1;fontSize=20;shadow=1;" vertex="1" parent="mH-_44QPLBYqhJ9qM-qt-42">
          <mxGeometry x="233" width="34" height="37" as="geometry" />
        </mxCell>
        <mxCell id="mH-_44QPLBYqhJ9qM-qt-51" value="9" style="shape=partialRectangle;html=1;whiteSpace=wrap;connectable=0;overflow=hidden;fillColor=none;top=0;left=0;bottom=0;right=0;fontFamily=Annie Use Your Telescope;fontSource=https%3A%2F%2Ffonts.googleapis.com%2Fcss%3Ffamily%3DAnnie%2BUse%2BYour%2BTelescope;fontStyle=1;fontSize=20;shadow=1;" vertex="1" parent="mH-_44QPLBYqhJ9qM-qt-42">
          <mxGeometry x="267" width="33" height="37" as="geometry" />
        </mxCell>
        <mxCell id="mH-_44QPLBYqhJ9qM-qt-52" value="" style="shape=partialRectangle;collapsible=0;dropTarget=0;pointerEvents=0;fillColor=none;top=0;left=0;bottom=0;right=0;points=[[0,0.5],[1,0.5]];portConstraint=eastwest;fontFamily=Annie Use Your Telescope;fontSource=https%3A%2F%2Ffonts.googleapis.com%2Fcss%3Ffamily%3DAnnie%2BUse%2BYour%2BTelescope;fontStyle=1;fontSize=20;shadow=1;" vertex="1" parent="mH-_44QPLBYqhJ9qM-qt-1">
          <mxGeometry y="183" width="300" height="36" as="geometry" />
        </mxCell>
        <mxCell id="mH-_44QPLBYqhJ9qM-qt-53" value="3" style="shape=partialRectangle;html=1;whiteSpace=wrap;connectable=0;overflow=hidden;fillColor=none;top=0;left=0;bottom=0;right=0;fontFamily=Annie Use Your Telescope;fontSource=https%3A%2F%2Ffonts.googleapis.com%2Fcss%3Ffamily%3DAnnie%2BUse%2BYour%2BTelescope;fontStyle=1;fontSize=20;shadow=1;" vertex="1" parent="mH-_44QPLBYqhJ9qM-qt-52">
          <mxGeometry width="33" height="36" as="geometry" />
        </mxCell>
        <mxCell id="mH-_44QPLBYqhJ9qM-qt-54" value="1" style="shape=partialRectangle;html=1;whiteSpace=wrap;connectable=0;overflow=hidden;fillColor=none;top=0;left=0;bottom=0;right=0;fontFamily=Annie Use Your Telescope;fontSource=https%3A%2F%2Ffonts.googleapis.com%2Fcss%3Ffamily%3DAnnie%2BUse%2BYour%2BTelescope;fontStyle=1;fontSize=20;shadow=1;" vertex="1" parent="mH-_44QPLBYqhJ9qM-qt-52">
          <mxGeometry x="33" width="34" height="36" as="geometry" />
        </mxCell>
        <mxCell id="mH-_44QPLBYqhJ9qM-qt-55" value="3" style="shape=partialRectangle;html=1;whiteSpace=wrap;connectable=0;overflow=hidden;fillColor=none;top=0;left=0;bottom=0;right=0;fontFamily=Annie Use Your Telescope;fontSource=https%3A%2F%2Ffonts.googleapis.com%2Fcss%3Ffamily%3DAnnie%2BUse%2BYour%2BTelescope;fontStyle=1;fontSize=20;shadow=1;" vertex="1" parent="mH-_44QPLBYqhJ9qM-qt-52">
          <mxGeometry x="67" width="33" height="36" as="geometry" />
        </mxCell>
        <mxCell id="mH-_44QPLBYqhJ9qM-qt-56" value="2" style="shape=partialRectangle;html=1;whiteSpace=wrap;connectable=0;overflow=hidden;fillColor=none;top=0;left=0;bottom=0;right=0;fontFamily=Annie Use Your Telescope;fontSource=https%3A%2F%2Ffonts.googleapis.com%2Fcss%3Ffamily%3DAnnie%2BUse%2BYour%2BTelescope;fontStyle=1;fontSize=20;shadow=1;" vertex="1" parent="mH-_44QPLBYqhJ9qM-qt-52">
          <mxGeometry x="100" width="33" height="36" as="geometry" />
        </mxCell>
        <mxCell id="mH-_44QPLBYqhJ9qM-qt-57" value="3" style="shape=partialRectangle;html=1;whiteSpace=wrap;connectable=0;overflow=hidden;top=0;left=0;bottom=0;right=0;fillColor=#CCCCCC;fontFamily=Annie Use Your Telescope;fontSource=https%3A%2F%2Ffonts.googleapis.com%2Fcss%3Ffamily%3DAnnie%2BUse%2BYour%2BTelescope;fontStyle=1;fontSize=20;shadow=1;" vertex="1" parent="mH-_44QPLBYqhJ9qM-qt-52">
          <mxGeometry x="133" width="33" height="36" as="geometry" />
        </mxCell>
        <mxCell id="mH-_44QPLBYqhJ9qM-qt-58" value="3" style="shape=partialRectangle;html=1;whiteSpace=wrap;connectable=0;overflow=hidden;fillColor=none;top=0;left=0;bottom=0;right=0;fontFamily=Annie Use Your Telescope;fontSource=https%3A%2F%2Ffonts.googleapis.com%2Fcss%3Ffamily%3DAnnie%2BUse%2BYour%2BTelescope;fontStyle=1;fontSize=20;shadow=1;" vertex="1" parent="mH-_44QPLBYqhJ9qM-qt-52">
          <mxGeometry x="166" width="34" height="36" as="geometry" />
        </mxCell>
        <mxCell id="mH-_44QPLBYqhJ9qM-qt-59" value="3" style="shape=partialRectangle;html=1;whiteSpace=wrap;connectable=0;overflow=hidden;fillColor=none;top=0;left=0;bottom=0;right=0;fontFamily=Annie Use Your Telescope;fontSource=https%3A%2F%2Ffonts.googleapis.com%2Fcss%3Ffamily%3DAnnie%2BUse%2BYour%2BTelescope;fontStyle=1;fontSize=20;shadow=1;" vertex="1" parent="mH-_44QPLBYqhJ9qM-qt-52">
          <mxGeometry x="200" width="33" height="36" as="geometry" />
        </mxCell>
        <mxCell id="mH-_44QPLBYqhJ9qM-qt-60" value="4" style="shape=partialRectangle;html=1;whiteSpace=wrap;connectable=0;overflow=hidden;fillColor=none;top=0;left=0;bottom=0;right=0;fontFamily=Annie Use Your Telescope;fontSource=https%3A%2F%2Ffonts.googleapis.com%2Fcss%3Ffamily%3DAnnie%2BUse%2BYour%2BTelescope;fontStyle=1;fontSize=20;shadow=1;" vertex="1" parent="mH-_44QPLBYqhJ9qM-qt-52">
          <mxGeometry x="233" width="34" height="36" as="geometry" />
        </mxCell>
        <mxCell id="mH-_44QPLBYqhJ9qM-qt-61" value="3" style="shape=partialRectangle;html=1;whiteSpace=wrap;connectable=0;overflow=hidden;fillColor=none;top=0;left=0;bottom=0;right=0;fontFamily=Annie Use Your Telescope;fontSource=https%3A%2F%2Ffonts.googleapis.com%2Fcss%3Ffamily%3DAnnie%2BUse%2BYour%2BTelescope;fontStyle=1;fontSize=20;shadow=1;" vertex="1" parent="mH-_44QPLBYqhJ9qM-qt-52">
          <mxGeometry x="267" width="33" height="36" as="geometry" />
        </mxCell>
        <mxCell id="mH-_44QPLBYqhJ9qM-qt-62" value="" style="shape=partialRectangle;collapsible=0;dropTarget=0;pointerEvents=0;fillColor=none;top=0;left=0;bottom=0;right=0;points=[[0,0.5],[1,0.5]];portConstraint=eastwest;fontFamily=Annie Use Your Telescope;fontSource=https%3A%2F%2Ffonts.googleapis.com%2Fcss%3Ffamily%3DAnnie%2BUse%2BYour%2BTelescope;fontStyle=1;fontSize=20;shadow=1;" vertex="1" parent="mH-_44QPLBYqhJ9qM-qt-1">
          <mxGeometry y="219" width="300" height="37" as="geometry" />
        </mxCell>
        <mxCell id="mH-_44QPLBYqhJ9qM-qt-63" value="5" style="shape=partialRectangle;html=1;whiteSpace=wrap;connectable=0;overflow=hidden;fillColor=none;top=0;left=0;bottom=0;right=0;fontFamily=Annie Use Your Telescope;fontSource=https%3A%2F%2Ffonts.googleapis.com%2Fcss%3Ffamily%3DAnnie%2BUse%2BYour%2BTelescope;fontStyle=1;fontSize=20;shadow=1;" vertex="1" parent="mH-_44QPLBYqhJ9qM-qt-62">
          <mxGeometry width="33" height="37" as="geometry" />
        </mxCell>
        <mxCell id="mH-_44QPLBYqhJ9qM-qt-64" value="3" style="shape=partialRectangle;html=1;whiteSpace=wrap;connectable=0;overflow=hidden;fillColor=none;top=0;left=0;bottom=0;right=0;fontFamily=Annie Use Your Telescope;fontSource=https%3A%2F%2Ffonts.googleapis.com%2Fcss%3Ffamily%3DAnnie%2BUse%2BYour%2BTelescope;fontStyle=1;fontSize=20;shadow=1;" vertex="1" parent="mH-_44QPLBYqhJ9qM-qt-62">
          <mxGeometry x="33" width="34" height="37" as="geometry" />
        </mxCell>
        <mxCell id="mH-_44QPLBYqhJ9qM-qt-65" value="6" style="shape=partialRectangle;html=1;whiteSpace=wrap;connectable=0;overflow=hidden;fillColor=none;top=0;left=0;bottom=0;right=0;fontFamily=Annie Use Your Telescope;fontSource=https%3A%2F%2Ffonts.googleapis.com%2Fcss%3Ffamily%3DAnnie%2BUse%2BYour%2BTelescope;fontStyle=1;fontSize=20;shadow=1;" vertex="1" parent="mH-_44QPLBYqhJ9qM-qt-62">
          <mxGeometry x="67" width="33" height="37" as="geometry" />
        </mxCell>
        <mxCell id="mH-_44QPLBYqhJ9qM-qt-66" value="3" style="shape=partialRectangle;html=1;whiteSpace=wrap;connectable=0;overflow=hidden;fillColor=none;top=0;left=0;bottom=0;right=0;fontFamily=Annie Use Your Telescope;fontSource=https%3A%2F%2Ffonts.googleapis.com%2Fcss%3Ffamily%3DAnnie%2BUse%2BYour%2BTelescope;fontStyle=1;fontSize=20;shadow=1;" vertex="1" parent="mH-_44QPLBYqhJ9qM-qt-62">
          <mxGeometry x="100" width="33" height="37" as="geometry" />
        </mxCell>
        <mxCell id="mH-_44QPLBYqhJ9qM-qt-67" value="7" style="shape=partialRectangle;html=1;whiteSpace=wrap;connectable=0;overflow=hidden;fillColor=none;top=0;left=0;bottom=0;right=0;fontFamily=Annie Use Your Telescope;fontSource=https%3A%2F%2Ffonts.googleapis.com%2Fcss%3Ffamily%3DAnnie%2BUse%2BYour%2BTelescope;fontStyle=1;fontSize=20;shadow=1;" vertex="1" parent="mH-_44QPLBYqhJ9qM-qt-62">
          <mxGeometry x="133" width="33" height="37" as="geometry" />
        </mxCell>
        <mxCell id="mH-_44QPLBYqhJ9qM-qt-68" value="3" style="shape=partialRectangle;html=1;whiteSpace=wrap;connectable=0;overflow=hidden;fillColor=none;top=0;left=0;bottom=0;right=0;fontFamily=Annie Use Your Telescope;fontSource=https%3A%2F%2Ffonts.googleapis.com%2Fcss%3Ffamily%3DAnnie%2BUse%2BYour%2BTelescope;fontStyle=1;fontSize=20;shadow=1;" vertex="1" parent="mH-_44QPLBYqhJ9qM-qt-62">
          <mxGeometry x="166" width="34" height="37" as="geometry" />
        </mxCell>
        <mxCell id="mH-_44QPLBYqhJ9qM-qt-69" value="8" style="shape=partialRectangle;html=1;whiteSpace=wrap;connectable=0;overflow=hidden;fillColor=none;top=0;left=0;bottom=0;right=0;fontFamily=Annie Use Your Telescope;fontSource=https%3A%2F%2Ffonts.googleapis.com%2Fcss%3Ffamily%3DAnnie%2BUse%2BYour%2BTelescope;fontStyle=1;fontSize=20;shadow=1;" vertex="1" parent="mH-_44QPLBYqhJ9qM-qt-62">
          <mxGeometry x="200" width="33" height="37" as="geometry" />
        </mxCell>
        <mxCell id="mH-_44QPLBYqhJ9qM-qt-70" value="3" style="shape=partialRectangle;html=1;whiteSpace=wrap;connectable=0;overflow=hidden;fillColor=none;top=0;left=0;bottom=0;right=0;fontFamily=Annie Use Your Telescope;fontSource=https%3A%2F%2Ffonts.googleapis.com%2Fcss%3Ffamily%3DAnnie%2BUse%2BYour%2BTelescope;fontStyle=1;fontSize=20;shadow=1;" vertex="1" parent="mH-_44QPLBYqhJ9qM-qt-62">
          <mxGeometry x="233" width="34" height="37" as="geometry" />
        </mxCell>
        <mxCell id="mH-_44QPLBYqhJ9qM-qt-71" value="9" style="shape=partialRectangle;html=1;whiteSpace=wrap;connectable=0;overflow=hidden;fillColor=none;top=0;left=0;bottom=0;right=0;fontFamily=Annie Use Your Telescope;fontSource=https%3A%2F%2Ffonts.googleapis.com%2Fcss%3Ffamily%3DAnnie%2BUse%2BYour%2BTelescope;fontStyle=1;fontSize=20;shadow=1;" vertex="1" parent="mH-_44QPLBYqhJ9qM-qt-62">
          <mxGeometry x="267" width="33" height="37" as="geometry" />
        </mxCell>
        <mxCell id="mH-_44QPLBYqhJ9qM-qt-72" value="" style="shape=partialRectangle;collapsible=0;dropTarget=0;pointerEvents=0;fillColor=none;top=0;left=0;bottom=0;right=0;points=[[0,0.5],[1,0.5]];portConstraint=eastwest;fontFamily=Annie Use Your Telescope;fontSource=https%3A%2F%2Ffonts.googleapis.com%2Fcss%3Ffamily%3DAnnie%2BUse%2BYour%2BTelescope;fontStyle=1;fontSize=20;shadow=1;" vertex="1" parent="mH-_44QPLBYqhJ9qM-qt-1">
          <mxGeometry y="256" width="300" height="36" as="geometry" />
        </mxCell>
        <mxCell id="mH-_44QPLBYqhJ9qM-qt-73" value="4" style="shape=partialRectangle;html=1;whiteSpace=wrap;connectable=0;overflow=hidden;fillColor=none;top=0;left=0;bottom=0;right=0;fontFamily=Annie Use Your Telescope;fontSource=https%3A%2F%2Ffonts.googleapis.com%2Fcss%3Ffamily%3DAnnie%2BUse%2BYour%2BTelescope;fontStyle=1;fontSize=20;shadow=1;" vertex="1" parent="mH-_44QPLBYqhJ9qM-qt-72">
          <mxGeometry width="33" height="36" as="geometry" />
        </mxCell>
        <mxCell id="mH-_44QPLBYqhJ9qM-qt-74" value="1" style="shape=partialRectangle;html=1;whiteSpace=wrap;connectable=0;overflow=hidden;fillColor=none;top=0;left=0;bottom=0;right=0;fontFamily=Annie Use Your Telescope;fontSource=https%3A%2F%2Ffonts.googleapis.com%2Fcss%3Ffamily%3DAnnie%2BUse%2BYour%2BTelescope;fontStyle=1;fontSize=20;shadow=1;" vertex="1" parent="mH-_44QPLBYqhJ9qM-qt-72">
          <mxGeometry x="33" width="34" height="36" as="geometry" />
        </mxCell>
        <mxCell id="mH-_44QPLBYqhJ9qM-qt-75" value="4" style="shape=partialRectangle;html=1;whiteSpace=wrap;connectable=0;overflow=hidden;fillColor=none;top=0;left=0;bottom=0;right=0;fontFamily=Annie Use Your Telescope;fontSource=https%3A%2F%2Ffonts.googleapis.com%2Fcss%3Ffamily%3DAnnie%2BUse%2BYour%2BTelescope;fontStyle=1;fontSize=20;shadow=1;" vertex="1" parent="mH-_44QPLBYqhJ9qM-qt-72">
          <mxGeometry x="67" width="33" height="36" as="geometry" />
        </mxCell>
        <mxCell id="mH-_44QPLBYqhJ9qM-qt-76" value="2" style="shape=partialRectangle;html=1;whiteSpace=wrap;connectable=0;overflow=hidden;fillColor=none;top=0;left=0;bottom=0;right=0;fontFamily=Annie Use Your Telescope;fontSource=https%3A%2F%2Ffonts.googleapis.com%2Fcss%3Ffamily%3DAnnie%2BUse%2BYour%2BTelescope;fontStyle=1;fontSize=20;shadow=1;" vertex="1" parent="mH-_44QPLBYqhJ9qM-qt-72">
          <mxGeometry x="100" width="33" height="36" as="geometry" />
        </mxCell>
        <mxCell id="mH-_44QPLBYqhJ9qM-qt-77" value="4" style="shape=partialRectangle;html=1;whiteSpace=wrap;connectable=0;overflow=hidden;fillColor=none;top=0;left=0;bottom=0;right=0;fontFamily=Annie Use Your Telescope;fontSource=https%3A%2F%2Ffonts.googleapis.com%2Fcss%3Ffamily%3DAnnie%2BUse%2BYour%2BTelescope;fontStyle=1;fontSize=20;shadow=1;" vertex="1" parent="mH-_44QPLBYqhJ9qM-qt-72">
          <mxGeometry x="133" width="33" height="36" as="geometry" />
        </mxCell>
        <mxCell id="mH-_44QPLBYqhJ9qM-qt-78" value="3" style="shape=partialRectangle;html=1;whiteSpace=wrap;connectable=0;overflow=hidden;fillColor=none;top=0;left=0;bottom=0;right=0;fontFamily=Annie Use Your Telescope;fontSource=https%3A%2F%2Ffonts.googleapis.com%2Fcss%3Ffamily%3DAnnie%2BUse%2BYour%2BTelescope;fontStyle=1;fontSize=20;shadow=1;" vertex="1" parent="mH-_44QPLBYqhJ9qM-qt-72">
          <mxGeometry x="166" width="34" height="36" as="geometry" />
        </mxCell>
        <mxCell id="mH-_44QPLBYqhJ9qM-qt-79" value="4" style="shape=partialRectangle;html=1;whiteSpace=wrap;connectable=0;overflow=hidden;fillColor=none;top=0;left=0;bottom=0;right=0;fontFamily=Annie Use Your Telescope;fontSource=https%3A%2F%2Ffonts.googleapis.com%2Fcss%3Ffamily%3DAnnie%2BUse%2BYour%2BTelescope;fontStyle=1;fontSize=20;shadow=1;" vertex="1" parent="mH-_44QPLBYqhJ9qM-qt-72">
          <mxGeometry x="200" width="33" height="36" as="geometry" />
        </mxCell>
        <mxCell id="mH-_44QPLBYqhJ9qM-qt-80" value="4" style="shape=partialRectangle;html=1;whiteSpace=wrap;connectable=0;overflow=hidden;fillColor=none;top=0;left=0;bottom=0;right=0;fontFamily=Annie Use Your Telescope;fontSource=https%3A%2F%2Ffonts.googleapis.com%2Fcss%3Ffamily%3DAnnie%2BUse%2BYour%2BTelescope;fontStyle=1;fontSize=20;shadow=1;" vertex="1" parent="mH-_44QPLBYqhJ9qM-qt-72">
          <mxGeometry x="233" width="34" height="36" as="geometry" />
        </mxCell>
        <mxCell id="mH-_44QPLBYqhJ9qM-qt-81" value="4" style="shape=partialRectangle;html=1;whiteSpace=wrap;connectable=0;overflow=hidden;fillColor=none;top=0;left=0;bottom=0;right=0;fontFamily=Annie Use Your Telescope;fontSource=https%3A%2F%2Ffonts.googleapis.com%2Fcss%3Ffamily%3DAnnie%2BUse%2BYour%2BTelescope;fontStyle=1;fontSize=20;shadow=1;" vertex="1" parent="mH-_44QPLBYqhJ9qM-qt-72">
          <mxGeometry x="267" width="33" height="36" as="geometry" />
        </mxCell>
        <mxCell id="mH-_44QPLBYqhJ9qM-qt-82" value="" style="shape=partialRectangle;collapsible=0;dropTarget=0;pointerEvents=0;fillColor=none;top=0;left=0;bottom=0;right=0;points=[[0,0.5],[1,0.5]];portConstraint=eastwest;fontFamily=Annie Use Your Telescope;fontSource=https%3A%2F%2Ffonts.googleapis.com%2Fcss%3Ffamily%3DAnnie%2BUse%2BYour%2BTelescope;fontStyle=1;fontSize=20;shadow=1;" vertex="1" parent="mH-_44QPLBYqhJ9qM-qt-1">
          <mxGeometry y="292" width="300" height="37" as="geometry" />
        </mxCell>
        <mxCell id="mH-_44QPLBYqhJ9qM-qt-83" value="5" style="shape=partialRectangle;html=1;whiteSpace=wrap;connectable=0;overflow=hidden;fillColor=none;top=0;left=0;bottom=0;right=0;fontFamily=Annie Use Your Telescope;fontSource=https%3A%2F%2Ffonts.googleapis.com%2Fcss%3Ffamily%3DAnnie%2BUse%2BYour%2BTelescope;fontStyle=1;fontSize=20;shadow=1;" vertex="1" parent="mH-_44QPLBYqhJ9qM-qt-82">
          <mxGeometry width="33" height="37" as="geometry" />
        </mxCell>
        <mxCell id="mH-_44QPLBYqhJ9qM-qt-84" value="4" style="shape=partialRectangle;html=1;whiteSpace=wrap;connectable=0;overflow=hidden;fillColor=none;top=0;left=0;bottom=0;right=0;fontFamily=Annie Use Your Telescope;fontSource=https%3A%2F%2Ffonts.googleapis.com%2Fcss%3Ffamily%3DAnnie%2BUse%2BYour%2BTelescope;fontStyle=1;fontSize=20;shadow=1;" vertex="1" parent="mH-_44QPLBYqhJ9qM-qt-82">
          <mxGeometry x="33" width="34" height="37" as="geometry" />
        </mxCell>
        <mxCell id="mH-_44QPLBYqhJ9qM-qt-85" value="6" style="shape=partialRectangle;html=1;whiteSpace=wrap;connectable=0;overflow=hidden;fillColor=none;top=0;left=0;bottom=0;right=0;fontFamily=Annie Use Your Telescope;fontSource=https%3A%2F%2Ffonts.googleapis.com%2Fcss%3Ffamily%3DAnnie%2BUse%2BYour%2BTelescope;fontStyle=1;fontSize=20;shadow=1;" vertex="1" parent="mH-_44QPLBYqhJ9qM-qt-82">
          <mxGeometry x="67" width="33" height="37" as="geometry" />
        </mxCell>
        <mxCell id="mH-_44QPLBYqhJ9qM-qt-86" value="4" style="shape=partialRectangle;html=1;whiteSpace=wrap;connectable=0;overflow=hidden;fillColor=none;top=0;left=0;bottom=0;right=0;fontFamily=Annie Use Your Telescope;fontSource=https%3A%2F%2Ffonts.googleapis.com%2Fcss%3Ffamily%3DAnnie%2BUse%2BYour%2BTelescope;fontStyle=1;fontSize=20;shadow=1;" vertex="1" parent="mH-_44QPLBYqhJ9qM-qt-82">
          <mxGeometry x="100" width="33" height="37" as="geometry" />
        </mxCell>
        <mxCell id="mH-_44QPLBYqhJ9qM-qt-87" value="7" style="shape=partialRectangle;html=1;whiteSpace=wrap;connectable=0;overflow=hidden;fillColor=none;top=0;left=0;bottom=0;right=0;fontFamily=Annie Use Your Telescope;fontSource=https%3A%2F%2Ffonts.googleapis.com%2Fcss%3Ffamily%3DAnnie%2BUse%2BYour%2BTelescope;fontStyle=1;fontSize=20;shadow=1;" vertex="1" parent="mH-_44QPLBYqhJ9qM-qt-82">
          <mxGeometry x="133" width="33" height="37" as="geometry" />
        </mxCell>
        <mxCell id="mH-_44QPLBYqhJ9qM-qt-88" value="4" style="shape=partialRectangle;html=1;whiteSpace=wrap;connectable=0;overflow=hidden;fillColor=none;top=0;left=0;bottom=0;right=0;fontFamily=Annie Use Your Telescope;fontSource=https%3A%2F%2Ffonts.googleapis.com%2Fcss%3Ffamily%3DAnnie%2BUse%2BYour%2BTelescope;fontStyle=1;fontSize=20;shadow=1;" vertex="1" parent="mH-_44QPLBYqhJ9qM-qt-82">
          <mxGeometry x="166" width="34" height="37" as="geometry" />
        </mxCell>
        <mxCell id="mH-_44QPLBYqhJ9qM-qt-89" value="8" style="shape=partialRectangle;html=1;whiteSpace=wrap;connectable=0;overflow=hidden;fillColor=none;top=0;left=0;bottom=0;right=0;fontFamily=Annie Use Your Telescope;fontSource=https%3A%2F%2Ffonts.googleapis.com%2Fcss%3Ffamily%3DAnnie%2BUse%2BYour%2BTelescope;fontStyle=1;fontSize=20;shadow=1;" vertex="1" parent="mH-_44QPLBYqhJ9qM-qt-82">
          <mxGeometry x="200" width="33" height="37" as="geometry" />
        </mxCell>
        <mxCell id="mH-_44QPLBYqhJ9qM-qt-90" value="4" style="shape=partialRectangle;html=1;whiteSpace=wrap;connectable=0;overflow=hidden;fillColor=none;top=0;left=0;bottom=0;right=0;fontFamily=Annie Use Your Telescope;fontSource=https%3A%2F%2Ffonts.googleapis.com%2Fcss%3Ffamily%3DAnnie%2BUse%2BYour%2BTelescope;fontStyle=1;fontSize=20;shadow=1;" vertex="1" parent="mH-_44QPLBYqhJ9qM-qt-82">
          <mxGeometry x="233" width="34" height="37" as="geometry" />
        </mxCell>
        <mxCell id="mH-_44QPLBYqhJ9qM-qt-91" value="9" style="shape=partialRectangle;html=1;whiteSpace=wrap;connectable=0;overflow=hidden;fillColor=none;top=0;left=0;bottom=0;right=0;fontFamily=Annie Use Your Telescope;fontSource=https%3A%2F%2Ffonts.googleapis.com%2Fcss%3Ffamily%3DAnnie%2BUse%2BYour%2BTelescope;fontStyle=1;fontSize=20;shadow=1;" vertex="1" parent="mH-_44QPLBYqhJ9qM-qt-82">
          <mxGeometry x="267" width="33" height="37" as="geometry" />
        </mxCell>
        <mxCell id="mH-_44QPLBYqhJ9qM-qt-92" value="" style="shape=partialRectangle;collapsible=0;dropTarget=0;pointerEvents=0;fillColor=none;top=0;left=0;bottom=0;right=0;points=[[0,0.5],[1,0.5]];portConstraint=eastwest;fontFamily=Annie Use Your Telescope;fontSource=https%3A%2F%2Ffonts.googleapis.com%2Fcss%3Ffamily%3DAnnie%2BUse%2BYour%2BTelescope;fontStyle=1;fontSize=20;" vertex="1" parent="mH-_44QPLBYqhJ9qM-qt-1">
          <mxGeometry y="329" width="300" height="36" as="geometry" />
        </mxCell>
        <mxCell id="mH-_44QPLBYqhJ9qM-qt-93" value="5" style="shape=partialRectangle;html=1;whiteSpace=wrap;connectable=0;overflow=hidden;fillColor=none;top=0;left=0;bottom=0;right=0;fontFamily=Annie Use Your Telescope;fontSource=https%3A%2F%2Ffonts.googleapis.com%2Fcss%3Ffamily%3DAnnie%2BUse%2BYour%2BTelescope;fontStyle=1;fontSize=20;" vertex="1" parent="mH-_44QPLBYqhJ9qM-qt-92">
          <mxGeometry width="33" height="36" as="geometry" />
        </mxCell>
        <mxCell id="mH-_44QPLBYqhJ9qM-qt-94" value="1" style="shape=partialRectangle;html=1;whiteSpace=wrap;connectable=0;overflow=hidden;fillColor=none;top=0;left=0;bottom=0;right=0;fontFamily=Annie Use Your Telescope;fontSource=https%3A%2F%2Ffonts.googleapis.com%2Fcss%3Ffamily%3DAnnie%2BUse%2BYour%2BTelescope;fontStyle=1;fontSize=20;" vertex="1" parent="mH-_44QPLBYqhJ9qM-qt-92">
          <mxGeometry x="33" width="34" height="36" as="geometry" />
        </mxCell>
        <mxCell id="mH-_44QPLBYqhJ9qM-qt-95" value="5" style="shape=partialRectangle;html=1;whiteSpace=wrap;connectable=0;overflow=hidden;fillColor=none;top=0;left=0;bottom=0;right=0;fontFamily=Annie Use Your Telescope;fontSource=https%3A%2F%2Ffonts.googleapis.com%2Fcss%3Ffamily%3DAnnie%2BUse%2BYour%2BTelescope;fontStyle=1;fontSize=20;" vertex="1" parent="mH-_44QPLBYqhJ9qM-qt-92">
          <mxGeometry x="67" width="33" height="36" as="geometry" />
        </mxCell>
        <mxCell id="mH-_44QPLBYqhJ9qM-qt-96" value="2" style="shape=partialRectangle;html=1;whiteSpace=wrap;connectable=0;overflow=hidden;fillColor=none;top=0;left=0;bottom=0;right=0;fontFamily=Annie Use Your Telescope;fontSource=https%3A%2F%2Ffonts.googleapis.com%2Fcss%3Ffamily%3DAnnie%2BUse%2BYour%2BTelescope;fontStyle=1;fontSize=20;" vertex="1" parent="mH-_44QPLBYqhJ9qM-qt-92">
          <mxGeometry x="100" width="33" height="36" as="geometry" />
        </mxCell>
        <mxCell id="mH-_44QPLBYqhJ9qM-qt-97" value="5" style="shape=partialRectangle;html=1;whiteSpace=wrap;connectable=0;overflow=hidden;fillColor=none;top=0;left=0;bottom=0;right=0;fontFamily=Annie Use Your Telescope;fontSource=https%3A%2F%2Ffonts.googleapis.com%2Fcss%3Ffamily%3DAnnie%2BUse%2BYour%2BTelescope;fontStyle=1;fontSize=20;" vertex="1" parent="mH-_44QPLBYqhJ9qM-qt-92">
          <mxGeometry x="133" width="33" height="36" as="geometry" />
        </mxCell>
        <mxCell id="mH-_44QPLBYqhJ9qM-qt-98" value="3" style="shape=partialRectangle;html=1;whiteSpace=wrap;connectable=0;overflow=hidden;fillColor=none;top=0;left=0;bottom=0;right=0;fontFamily=Annie Use Your Telescope;fontSource=https%3A%2F%2Ffonts.googleapis.com%2Fcss%3Ffamily%3DAnnie%2BUse%2BYour%2BTelescope;fontStyle=1;fontSize=20;" vertex="1" parent="mH-_44QPLBYqhJ9qM-qt-92">
          <mxGeometry x="166" width="34" height="36" as="geometry" />
        </mxCell>
        <mxCell id="mH-_44QPLBYqhJ9qM-qt-99" value="5" style="shape=partialRectangle;html=1;whiteSpace=wrap;connectable=0;overflow=hidden;fillColor=none;top=0;left=0;bottom=0;right=0;fontFamily=Annie Use Your Telescope;fontSource=https%3A%2F%2Ffonts.googleapis.com%2Fcss%3Ffamily%3DAnnie%2BUse%2BYour%2BTelescope;fontStyle=1;fontSize=20;" vertex="1" parent="mH-_44QPLBYqhJ9qM-qt-92">
          <mxGeometry x="200" width="33" height="36" as="geometry" />
        </mxCell>
        <mxCell id="mH-_44QPLBYqhJ9qM-qt-100" value="4" style="shape=partialRectangle;html=1;whiteSpace=wrap;connectable=0;overflow=hidden;fillColor=none;top=0;left=0;bottom=0;right=0;fontFamily=Annie Use Your Telescope;fontSource=https%3A%2F%2Ffonts.googleapis.com%2Fcss%3Ffamily%3DAnnie%2BUse%2BYour%2BTelescope;fontStyle=1;fontSize=20;" vertex="1" parent="mH-_44QPLBYqhJ9qM-qt-92">
          <mxGeometry x="233" width="34" height="36" as="geometry" />
        </mxCell>
        <mxCell id="mH-_44QPLBYqhJ9qM-qt-101" value="5" style="shape=partialRectangle;html=1;whiteSpace=wrap;connectable=0;overflow=hidden;fillColor=none;top=0;left=0;bottom=0;right=0;fontFamily=Annie Use Your Telescope;fontSource=https%3A%2F%2Ffonts.googleapis.com%2Fcss%3Ffamily%3DAnnie%2BUse%2BYour%2BTelescope;fontStyle=1;fontSize=20;" vertex="1" parent="mH-_44QPLBYqhJ9qM-qt-92">
          <mxGeometry x="267" width="33" height="36" as="geometry" />
        </mxCell>
        <mxCell id="mH-_44QPLBYqhJ9qM-qt-102" value="" style="shape=partialRectangle;collapsible=0;dropTarget=0;pointerEvents=0;fillColor=none;top=0;left=0;bottom=0;right=0;points=[[0,0.5],[1,0.5]];portConstraint=eastwest;fontFamily=Annie Use Your Telescope;fontSource=https%3A%2F%2Ffonts.googleapis.com%2Fcss%3Ffamily%3DAnnie%2BUse%2BYour%2BTelescope;fontStyle=1;fontSize=20;" vertex="1" parent="mH-_44QPLBYqhJ9qM-qt-1">
          <mxGeometry y="365" width="300" height="37" as="geometry" />
        </mxCell>
        <mxCell id="mH-_44QPLBYqhJ9qM-qt-103" value="5" style="shape=partialRectangle;html=1;whiteSpace=wrap;connectable=0;overflow=hidden;fillColor=none;top=0;left=0;bottom=0;right=0;fontFamily=Annie Use Your Telescope;fontSource=https%3A%2F%2Ffonts.googleapis.com%2Fcss%3Ffamily%3DAnnie%2BUse%2BYour%2BTelescope;fontStyle=1;fontSize=20;" vertex="1" parent="mH-_44QPLBYqhJ9qM-qt-102">
          <mxGeometry width="33" height="37" as="geometry" />
        </mxCell>
        <mxCell id="mH-_44QPLBYqhJ9qM-qt-104" value="5" style="shape=partialRectangle;html=1;whiteSpace=wrap;connectable=0;overflow=hidden;fillColor=none;top=0;left=0;bottom=0;right=0;fontFamily=Annie Use Your Telescope;fontSource=https%3A%2F%2Ffonts.googleapis.com%2Fcss%3Ffamily%3DAnnie%2BUse%2BYour%2BTelescope;fontStyle=1;fontSize=20;" vertex="1" parent="mH-_44QPLBYqhJ9qM-qt-102">
          <mxGeometry x="33" width="34" height="37" as="geometry" />
        </mxCell>
        <mxCell id="mH-_44QPLBYqhJ9qM-qt-105" value="6" style="shape=partialRectangle;html=1;whiteSpace=wrap;connectable=0;overflow=hidden;fillColor=none;top=0;left=0;bottom=0;right=0;fontFamily=Annie Use Your Telescope;fontSource=https%3A%2F%2Ffonts.googleapis.com%2Fcss%3Ffamily%3DAnnie%2BUse%2BYour%2BTelescope;fontStyle=1;fontSize=20;" vertex="1" parent="mH-_44QPLBYqhJ9qM-qt-102">
          <mxGeometry x="67" width="33" height="37" as="geometry" />
        </mxCell>
        <mxCell id="mH-_44QPLBYqhJ9qM-qt-106" value="5" style="shape=partialRectangle;html=1;whiteSpace=wrap;connectable=0;overflow=hidden;fillColor=none;top=0;left=0;bottom=0;right=0;fontFamily=Annie Use Your Telescope;fontSource=https%3A%2F%2Ffonts.googleapis.com%2Fcss%3Ffamily%3DAnnie%2BUse%2BYour%2BTelescope;fontStyle=1;fontSize=20;" vertex="1" parent="mH-_44QPLBYqhJ9qM-qt-102">
          <mxGeometry x="100" width="33" height="37" as="geometry" />
        </mxCell>
        <mxCell id="mH-_44QPLBYqhJ9qM-qt-107" value="7" style="shape=partialRectangle;html=1;whiteSpace=wrap;connectable=0;overflow=hidden;fillColor=none;top=0;left=0;bottom=0;right=0;fontFamily=Annie Use Your Telescope;fontSource=https%3A%2F%2Ffonts.googleapis.com%2Fcss%3Ffamily%3DAnnie%2BUse%2BYour%2BTelescope;fontStyle=1;fontSize=20;" vertex="1" parent="mH-_44QPLBYqhJ9qM-qt-102">
          <mxGeometry x="133" width="33" height="37" as="geometry" />
        </mxCell>
        <mxCell id="mH-_44QPLBYqhJ9qM-qt-108" value="5" style="shape=partialRectangle;html=1;whiteSpace=wrap;connectable=0;overflow=hidden;fillColor=none;top=0;left=0;bottom=0;right=0;fontFamily=Annie Use Your Telescope;fontSource=https%3A%2F%2Ffonts.googleapis.com%2Fcss%3Ffamily%3DAnnie%2BUse%2BYour%2BTelescope;fontStyle=1;fontSize=20;" vertex="1" parent="mH-_44QPLBYqhJ9qM-qt-102">
          <mxGeometry x="166" width="34" height="37" as="geometry" />
        </mxCell>
        <mxCell id="mH-_44QPLBYqhJ9qM-qt-109" value="8" style="shape=partialRectangle;html=1;whiteSpace=wrap;connectable=0;overflow=hidden;fillColor=none;top=0;left=0;bottom=0;right=0;fontFamily=Annie Use Your Telescope;fontSource=https%3A%2F%2Ffonts.googleapis.com%2Fcss%3Ffamily%3DAnnie%2BUse%2BYour%2BTelescope;fontStyle=1;fontSize=20;" vertex="1" parent="mH-_44QPLBYqhJ9qM-qt-102">
          <mxGeometry x="200" width="33" height="37" as="geometry" />
        </mxCell>
        <mxCell id="mH-_44QPLBYqhJ9qM-qt-110" value="5" style="shape=partialRectangle;html=1;whiteSpace=wrap;connectable=0;overflow=hidden;fillColor=none;top=0;left=0;bottom=0;right=0;fontFamily=Annie Use Your Telescope;fontSource=https%3A%2F%2Ffonts.googleapis.com%2Fcss%3Ffamily%3DAnnie%2BUse%2BYour%2BTelescope;fontStyle=1;fontSize=20;" vertex="1" parent="mH-_44QPLBYqhJ9qM-qt-102">
          <mxGeometry x="233" width="34" height="37" as="geometry" />
        </mxCell>
        <mxCell id="mH-_44QPLBYqhJ9qM-qt-111" value="9" style="shape=partialRectangle;html=1;whiteSpace=wrap;connectable=0;overflow=hidden;fillColor=none;top=0;left=0;bottom=0;right=0;fontFamily=Annie Use Your Telescope;fontSource=https%3A%2F%2Ffonts.googleapis.com%2Fcss%3Ffamily%3DAnnie%2BUse%2BYour%2BTelescope;fontStyle=1;fontSize=20;" vertex="1" parent="mH-_44QPLBYqhJ9qM-qt-102">
          <mxGeometry x="267" width="33" height="37" as="geometry" />
        </mxCell>
        <mxCell id="mH-_44QPLBYqhJ9qM-qt-112" value="" style="shape=partialRectangle;collapsible=0;dropTarget=0;pointerEvents=0;fillColor=none;top=0;left=0;bottom=0;right=0;points=[[0,0.5],[1,0.5]];portConstraint=eastwest;fontFamily=Annie Use Your Telescope;fontSource=https%3A%2F%2Ffonts.googleapis.com%2Fcss%3Ffamily%3DAnnie%2BUse%2BYour%2BTelescope;fontStyle=1;fontSize=20;" vertex="1" parent="mH-_44QPLBYqhJ9qM-qt-1">
          <mxGeometry y="402" width="300" height="36" as="geometry" />
        </mxCell>
        <mxCell id="mH-_44QPLBYqhJ9qM-qt-113" value="6" style="shape=partialRectangle;html=1;whiteSpace=wrap;connectable=0;overflow=hidden;fillColor=none;top=0;left=0;bottom=0;right=0;fontFamily=Annie Use Your Telescope;fontSource=https%3A%2F%2Ffonts.googleapis.com%2Fcss%3Ffamily%3DAnnie%2BUse%2BYour%2BTelescope;fontStyle=1;fontSize=20;" vertex="1" parent="mH-_44QPLBYqhJ9qM-qt-112">
          <mxGeometry width="33" height="36" as="geometry" />
        </mxCell>
        <mxCell id="mH-_44QPLBYqhJ9qM-qt-114" value="1" style="shape=partialRectangle;html=1;whiteSpace=wrap;connectable=0;overflow=hidden;fillColor=none;top=0;left=0;bottom=0;right=0;fontFamily=Annie Use Your Telescope;fontSource=https%3A%2F%2Ffonts.googleapis.com%2Fcss%3Ffamily%3DAnnie%2BUse%2BYour%2BTelescope;fontStyle=1;fontSize=20;" vertex="1" parent="mH-_44QPLBYqhJ9qM-qt-112">
          <mxGeometry x="33" width="34" height="36" as="geometry" />
        </mxCell>
        <mxCell id="mH-_44QPLBYqhJ9qM-qt-115" value="6" style="shape=partialRectangle;html=1;whiteSpace=wrap;connectable=0;overflow=hidden;fillColor=none;top=0;left=0;bottom=0;right=0;fontFamily=Annie Use Your Telescope;fontSource=https%3A%2F%2Ffonts.googleapis.com%2Fcss%3Ffamily%3DAnnie%2BUse%2BYour%2BTelescope;fontStyle=1;fontSize=20;" vertex="1" parent="mH-_44QPLBYqhJ9qM-qt-112">
          <mxGeometry x="67" width="33" height="36" as="geometry" />
        </mxCell>
        <mxCell id="mH-_44QPLBYqhJ9qM-qt-116" value="2" style="shape=partialRectangle;html=1;whiteSpace=wrap;connectable=0;overflow=hidden;fillColor=none;top=0;left=0;bottom=0;right=0;fontFamily=Annie Use Your Telescope;fontSource=https%3A%2F%2Ffonts.googleapis.com%2Fcss%3Ffamily%3DAnnie%2BUse%2BYour%2BTelescope;fontStyle=1;fontSize=20;" vertex="1" parent="mH-_44QPLBYqhJ9qM-qt-112">
          <mxGeometry x="100" width="33" height="36" as="geometry" />
        </mxCell>
        <mxCell id="mH-_44QPLBYqhJ9qM-qt-117" value="6" style="shape=partialRectangle;html=1;whiteSpace=wrap;connectable=0;overflow=hidden;fillColor=none;top=0;left=0;bottom=0;right=0;fontFamily=Annie Use Your Telescope;fontSource=https%3A%2F%2Ffonts.googleapis.com%2Fcss%3Ffamily%3DAnnie%2BUse%2BYour%2BTelescope;fontStyle=1;fontSize=20;" vertex="1" parent="mH-_44QPLBYqhJ9qM-qt-112">
          <mxGeometry x="133" width="33" height="36" as="geometry" />
        </mxCell>
        <mxCell id="mH-_44QPLBYqhJ9qM-qt-118" value="3" style="shape=partialRectangle;html=1;whiteSpace=wrap;connectable=0;overflow=hidden;fillColor=none;top=0;left=0;bottom=0;right=0;fontFamily=Annie Use Your Telescope;fontSource=https%3A%2F%2Ffonts.googleapis.com%2Fcss%3Ffamily%3DAnnie%2BUse%2BYour%2BTelescope;fontStyle=1;fontSize=20;" vertex="1" parent="mH-_44QPLBYqhJ9qM-qt-112">
          <mxGeometry x="166" width="34" height="36" as="geometry" />
        </mxCell>
        <mxCell id="mH-_44QPLBYqhJ9qM-qt-119" value="6" style="shape=partialRectangle;html=1;whiteSpace=wrap;connectable=0;overflow=hidden;top=0;left=0;bottom=0;right=0;fillColor=#CCCCCC;fontFamily=Annie Use Your Telescope;fontSource=https%3A%2F%2Ffonts.googleapis.com%2Fcss%3Ffamily%3DAnnie%2BUse%2BYour%2BTelescope;fontStyle=1;fontSize=20;" vertex="1" parent="mH-_44QPLBYqhJ9qM-qt-112">
          <mxGeometry x="200" width="33" height="36" as="geometry" />
        </mxCell>
        <mxCell id="mH-_44QPLBYqhJ9qM-qt-120" value="4" style="shape=partialRectangle;html=1;whiteSpace=wrap;connectable=0;overflow=hidden;top=0;left=0;bottom=0;right=0;fillColor=#CCCCCC;fontFamily=Annie Use Your Telescope;fontSource=https%3A%2F%2Ffonts.googleapis.com%2Fcss%3Ffamily%3DAnnie%2BUse%2BYour%2BTelescope;fontStyle=1;fontSize=20;" vertex="1" parent="mH-_44QPLBYqhJ9qM-qt-112">
          <mxGeometry x="233" width="34" height="36" as="geometry" />
        </mxCell>
        <mxCell id="mH-_44QPLBYqhJ9qM-qt-121" value="6" style="shape=partialRectangle;html=1;whiteSpace=wrap;connectable=0;overflow=hidden;fillColor=none;top=0;left=0;bottom=0;right=0;fontFamily=Annie Use Your Telescope;fontSource=https%3A%2F%2Ffonts.googleapis.com%2Fcss%3Ffamily%3DAnnie%2BUse%2BYour%2BTelescope;fontStyle=1;fontSize=20;" vertex="1" parent="mH-_44QPLBYqhJ9qM-qt-112">
          <mxGeometry x="267" width="33" height="36" as="geometry" />
        </mxCell>
        <mxCell id="mH-_44QPLBYqhJ9qM-qt-122" value="" style="shape=partialRectangle;collapsible=0;dropTarget=0;pointerEvents=0;fillColor=none;top=0;left=0;bottom=0;right=0;points=[[0,0.5],[1,0.5]];portConstraint=eastwest;fontFamily=Annie Use Your Telescope;fontSource=https%3A%2F%2Ffonts.googleapis.com%2Fcss%3Ffamily%3DAnnie%2BUse%2BYour%2BTelescope;fontStyle=1;fontSize=20;" vertex="1" parent="mH-_44QPLBYqhJ9qM-qt-1">
          <mxGeometry y="438" width="300" height="37" as="geometry" />
        </mxCell>
        <mxCell id="mH-_44QPLBYqhJ9qM-qt-123" value="5" style="shape=partialRectangle;html=1;whiteSpace=wrap;connectable=0;overflow=hidden;fillColor=none;top=0;left=0;bottom=0;right=0;fontFamily=Annie Use Your Telescope;fontSource=https%3A%2F%2Ffonts.googleapis.com%2Fcss%3Ffamily%3DAnnie%2BUse%2BYour%2BTelescope;fontStyle=1;fontSize=20;" vertex="1" parent="mH-_44QPLBYqhJ9qM-qt-122">
          <mxGeometry width="33" height="37" as="geometry" />
        </mxCell>
        <mxCell id="mH-_44QPLBYqhJ9qM-qt-124" value="6" style="shape=partialRectangle;html=1;whiteSpace=wrap;connectable=0;overflow=hidden;fillColor=none;top=0;left=0;bottom=0;right=0;fontFamily=Annie Use Your Telescope;fontSource=https%3A%2F%2Ffonts.googleapis.com%2Fcss%3Ffamily%3DAnnie%2BUse%2BYour%2BTelescope;fontStyle=1;fontSize=20;" vertex="1" parent="mH-_44QPLBYqhJ9qM-qt-122">
          <mxGeometry x="33" width="34" height="37" as="geometry" />
        </mxCell>
        <mxCell id="mH-_44QPLBYqhJ9qM-qt-125" value="6" style="shape=partialRectangle;html=1;whiteSpace=wrap;connectable=0;overflow=hidden;fillColor=none;top=0;left=0;bottom=0;right=0;fontFamily=Annie Use Your Telescope;fontSource=https%3A%2F%2Ffonts.googleapis.com%2Fcss%3Ffamily%3DAnnie%2BUse%2BYour%2BTelescope;fontStyle=1;fontSize=20;" vertex="1" parent="mH-_44QPLBYqhJ9qM-qt-122">
          <mxGeometry x="67" width="33" height="37" as="geometry" />
        </mxCell>
        <mxCell id="mH-_44QPLBYqhJ9qM-qt-126" value="6" style="shape=partialRectangle;html=1;whiteSpace=wrap;connectable=0;overflow=hidden;fillColor=none;top=0;left=0;bottom=0;right=0;fontFamily=Annie Use Your Telescope;fontSource=https%3A%2F%2Ffonts.googleapis.com%2Fcss%3Ffamily%3DAnnie%2BUse%2BYour%2BTelescope;fontStyle=1;fontSize=20;" vertex="1" parent="mH-_44QPLBYqhJ9qM-qt-122">
          <mxGeometry x="100" width="33" height="37" as="geometry" />
        </mxCell>
        <mxCell id="mH-_44QPLBYqhJ9qM-qt-127" value="7" style="shape=partialRectangle;html=1;whiteSpace=wrap;connectable=0;overflow=hidden;fillColor=none;top=0;left=0;bottom=0;right=0;fontFamily=Annie Use Your Telescope;fontSource=https%3A%2F%2Ffonts.googleapis.com%2Fcss%3Ffamily%3DAnnie%2BUse%2BYour%2BTelescope;fontStyle=1;fontSize=20;" vertex="1" parent="mH-_44QPLBYqhJ9qM-qt-122">
          <mxGeometry x="133" width="33" height="37" as="geometry" />
        </mxCell>
        <mxCell id="mH-_44QPLBYqhJ9qM-qt-128" value="6" style="shape=partialRectangle;html=1;whiteSpace=wrap;connectable=0;overflow=hidden;fillColor=none;top=0;left=0;bottom=0;right=0;fontFamily=Annie Use Your Telescope;fontSource=https%3A%2F%2Ffonts.googleapis.com%2Fcss%3Ffamily%3DAnnie%2BUse%2BYour%2BTelescope;fontStyle=1;fontSize=20;" vertex="1" parent="mH-_44QPLBYqhJ9qM-qt-122">
          <mxGeometry x="166" width="34" height="37" as="geometry" />
        </mxCell>
        <mxCell id="mH-_44QPLBYqhJ9qM-qt-129" value="8" style="shape=partialRectangle;html=1;whiteSpace=wrap;connectable=0;overflow=hidden;fillColor=none;top=0;left=0;bottom=0;right=0;fontFamily=Annie Use Your Telescope;fontSource=https%3A%2F%2Ffonts.googleapis.com%2Fcss%3Ffamily%3DAnnie%2BUse%2BYour%2BTelescope;fontStyle=1;fontSize=20;" vertex="1" parent="mH-_44QPLBYqhJ9qM-qt-122">
          <mxGeometry x="200" width="33" height="37" as="geometry" />
        </mxCell>
        <mxCell id="mH-_44QPLBYqhJ9qM-qt-130" value="6" style="shape=partialRectangle;html=1;whiteSpace=wrap;connectable=0;overflow=hidden;fillColor=none;top=0;left=0;bottom=0;right=0;fontFamily=Annie Use Your Telescope;fontSource=https%3A%2F%2Ffonts.googleapis.com%2Fcss%3Ffamily%3DAnnie%2BUse%2BYour%2BTelescope;fontStyle=1;fontSize=20;" vertex="1" parent="mH-_44QPLBYqhJ9qM-qt-122">
          <mxGeometry x="233" width="34" height="37" as="geometry" />
        </mxCell>
        <mxCell id="mH-_44QPLBYqhJ9qM-qt-131" value="9" style="shape=partialRectangle;html=1;whiteSpace=wrap;connectable=0;overflow=hidden;fillColor=none;top=0;left=0;bottom=0;right=0;fontFamily=Annie Use Your Telescope;fontSource=https%3A%2F%2Ffonts.googleapis.com%2Fcss%3Ffamily%3DAnnie%2BUse%2BYour%2BTelescope;fontStyle=1;fontSize=20;" vertex="1" parent="mH-_44QPLBYqhJ9qM-qt-122">
          <mxGeometry x="267" width="33" height="37" as="geometry" />
        </mxCell>
        <mxCell id="mH-_44QPLBYqhJ9qM-qt-132" value="" style="shape=partialRectangle;collapsible=0;dropTarget=0;pointerEvents=0;fillColor=none;top=0;left=0;bottom=0;right=0;points=[[0,0.5],[1,0.5]];portConstraint=eastwest;fontFamily=Annie Use Your Telescope;fontSource=https%3A%2F%2Ffonts.googleapis.com%2Fcss%3Ffamily%3DAnnie%2BUse%2BYour%2BTelescope;fontStyle=1;fontSize=20;" vertex="1" parent="mH-_44QPLBYqhJ9qM-qt-1">
          <mxGeometry y="475" width="300" height="36" as="geometry" />
        </mxCell>
        <mxCell id="mH-_44QPLBYqhJ9qM-qt-133" value="7" style="shape=partialRectangle;html=1;whiteSpace=wrap;connectable=0;overflow=hidden;fillColor=none;top=0;left=0;bottom=0;right=0;fontFamily=Annie Use Your Telescope;fontSource=https%3A%2F%2Ffonts.googleapis.com%2Fcss%3Ffamily%3DAnnie%2BUse%2BYour%2BTelescope;fontStyle=1;fontSize=20;" vertex="1" parent="mH-_44QPLBYqhJ9qM-qt-132">
          <mxGeometry width="33" height="36" as="geometry" />
        </mxCell>
        <mxCell id="mH-_44QPLBYqhJ9qM-qt-134" value="1" style="shape=partialRectangle;html=1;whiteSpace=wrap;connectable=0;overflow=hidden;fillColor=none;top=0;left=0;bottom=0;right=0;fontFamily=Annie Use Your Telescope;fontSource=https%3A%2F%2Ffonts.googleapis.com%2Fcss%3Ffamily%3DAnnie%2BUse%2BYour%2BTelescope;fontStyle=1;fontSize=20;" vertex="1" parent="mH-_44QPLBYqhJ9qM-qt-132">
          <mxGeometry x="33" width="34" height="36" as="geometry" />
        </mxCell>
        <mxCell id="mH-_44QPLBYqhJ9qM-qt-135" value="7" style="shape=partialRectangle;html=1;whiteSpace=wrap;connectable=0;overflow=hidden;fillColor=none;top=0;left=0;bottom=0;right=0;fontFamily=Annie Use Your Telescope;fontSource=https%3A%2F%2Ffonts.googleapis.com%2Fcss%3Ffamily%3DAnnie%2BUse%2BYour%2BTelescope;fontStyle=1;fontSize=20;" vertex="1" parent="mH-_44QPLBYqhJ9qM-qt-132">
          <mxGeometry x="67" width="33" height="36" as="geometry" />
        </mxCell>
        <mxCell id="mH-_44QPLBYqhJ9qM-qt-136" value="2" style="shape=partialRectangle;html=1;whiteSpace=wrap;connectable=0;overflow=hidden;fillColor=none;top=0;left=0;bottom=0;right=0;fontFamily=Annie Use Your Telescope;fontSource=https%3A%2F%2Ffonts.googleapis.com%2Fcss%3Ffamily%3DAnnie%2BUse%2BYour%2BTelescope;fontStyle=1;fontSize=20;" vertex="1" parent="mH-_44QPLBYqhJ9qM-qt-132">
          <mxGeometry x="100" width="33" height="36" as="geometry" />
        </mxCell>
        <mxCell id="mH-_44QPLBYqhJ9qM-qt-137" value="7" style="shape=partialRectangle;html=1;whiteSpace=wrap;connectable=0;overflow=hidden;fillColor=none;top=0;left=0;bottom=0;right=0;fontFamily=Annie Use Your Telescope;fontSource=https%3A%2F%2Ffonts.googleapis.com%2Fcss%3Ffamily%3DAnnie%2BUse%2BYour%2BTelescope;fontStyle=1;fontSize=20;" vertex="1" parent="mH-_44QPLBYqhJ9qM-qt-132">
          <mxGeometry x="133" width="33" height="36" as="geometry" />
        </mxCell>
        <mxCell id="mH-_44QPLBYqhJ9qM-qt-138" value="3" style="shape=partialRectangle;html=1;whiteSpace=wrap;connectable=0;overflow=hidden;fillColor=none;top=0;left=0;bottom=0;right=0;fontFamily=Annie Use Your Telescope;fontSource=https%3A%2F%2Ffonts.googleapis.com%2Fcss%3Ffamily%3DAnnie%2BUse%2BYour%2BTelescope;fontStyle=1;fontSize=20;" vertex="1" parent="mH-_44QPLBYqhJ9qM-qt-132">
          <mxGeometry x="166" width="34" height="36" as="geometry" />
        </mxCell>
        <mxCell id="mH-_44QPLBYqhJ9qM-qt-139" value="7" style="shape=partialRectangle;html=1;whiteSpace=wrap;connectable=0;overflow=hidden;fillColor=none;top=0;left=0;bottom=0;right=0;fontFamily=Annie Use Your Telescope;fontSource=https%3A%2F%2Ffonts.googleapis.com%2Fcss%3Ffamily%3DAnnie%2BUse%2BYour%2BTelescope;fontStyle=1;fontSize=20;" vertex="1" parent="mH-_44QPLBYqhJ9qM-qt-132">
          <mxGeometry x="200" width="33" height="36" as="geometry" />
        </mxCell>
        <mxCell id="mH-_44QPLBYqhJ9qM-qt-140" value="4" style="shape=partialRectangle;html=1;whiteSpace=wrap;connectable=0;overflow=hidden;fillColor=none;top=0;left=0;bottom=0;right=0;fontFamily=Annie Use Your Telescope;fontSource=https%3A%2F%2Ffonts.googleapis.com%2Fcss%3Ffamily%3DAnnie%2BUse%2BYour%2BTelescope;fontStyle=1;fontSize=20;" vertex="1" parent="mH-_44QPLBYqhJ9qM-qt-132">
          <mxGeometry x="233" width="34" height="36" as="geometry" />
        </mxCell>
        <mxCell id="mH-_44QPLBYqhJ9qM-qt-141" value="7" style="shape=partialRectangle;html=1;whiteSpace=wrap;connectable=0;overflow=hidden;fillColor=none;top=0;left=0;bottom=0;right=0;fontFamily=Annie Use Your Telescope;fontSource=https%3A%2F%2Ffonts.googleapis.com%2Fcss%3Ffamily%3DAnnie%2BUse%2BYour%2BTelescope;fontStyle=1;fontSize=20;" vertex="1" parent="mH-_44QPLBYqhJ9qM-qt-132">
          <mxGeometry x="267" width="33" height="36" as="geometry" />
        </mxCell>
        <mxCell id="mH-_44QPLBYqhJ9qM-qt-142" value="" style="shape=partialRectangle;collapsible=0;dropTarget=0;pointerEvents=0;fillColor=none;top=0;left=0;bottom=0;right=0;points=[[0,0.5],[1,0.5]];portConstraint=eastwest;fontFamily=Annie Use Your Telescope;fontSource=https%3A%2F%2Ffonts.googleapis.com%2Fcss%3Ffamily%3DAnnie%2BUse%2BYour%2BTelescope;fontStyle=1;fontSize=20;" vertex="1" parent="mH-_44QPLBYqhJ9qM-qt-1">
          <mxGeometry y="511" width="300" height="37" as="geometry" />
        </mxCell>
        <mxCell id="mH-_44QPLBYqhJ9qM-qt-143" value="5" style="shape=partialRectangle;html=1;whiteSpace=wrap;connectable=0;overflow=hidden;fillColor=none;top=0;left=0;bottom=0;right=0;fontFamily=Annie Use Your Telescope;fontSource=https%3A%2F%2Ffonts.googleapis.com%2Fcss%3Ffamily%3DAnnie%2BUse%2BYour%2BTelescope;fontStyle=1;fontSize=20;" vertex="1" parent="mH-_44QPLBYqhJ9qM-qt-142">
          <mxGeometry width="33" height="37" as="geometry" />
        </mxCell>
        <mxCell id="mH-_44QPLBYqhJ9qM-qt-144" value="7" style="shape=partialRectangle;html=1;whiteSpace=wrap;connectable=0;overflow=hidden;fillColor=none;top=0;left=0;bottom=0;right=0;fontFamily=Annie Use Your Telescope;fontSource=https%3A%2F%2Ffonts.googleapis.com%2Fcss%3Ffamily%3DAnnie%2BUse%2BYour%2BTelescope;fontStyle=1;fontSize=20;" vertex="1" parent="mH-_44QPLBYqhJ9qM-qt-142">
          <mxGeometry x="33" width="34" height="37" as="geometry" />
        </mxCell>
        <mxCell id="mH-_44QPLBYqhJ9qM-qt-145" value="6" style="shape=partialRectangle;html=1;whiteSpace=wrap;connectable=0;overflow=hidden;fillColor=none;top=0;left=0;bottom=0;right=0;fontFamily=Annie Use Your Telescope;fontSource=https%3A%2F%2Ffonts.googleapis.com%2Fcss%3Ffamily%3DAnnie%2BUse%2BYour%2BTelescope;fontStyle=1;fontSize=20;" vertex="1" parent="mH-_44QPLBYqhJ9qM-qt-142">
          <mxGeometry x="67" width="33" height="37" as="geometry" />
        </mxCell>
        <mxCell id="mH-_44QPLBYqhJ9qM-qt-146" value="7" style="shape=partialRectangle;html=1;whiteSpace=wrap;connectable=0;overflow=hidden;fillColor=none;top=0;left=0;bottom=0;right=0;fontFamily=Annie Use Your Telescope;fontSource=https%3A%2F%2Ffonts.googleapis.com%2Fcss%3Ffamily%3DAnnie%2BUse%2BYour%2BTelescope;fontStyle=1;fontSize=20;" vertex="1" parent="mH-_44QPLBYqhJ9qM-qt-142">
          <mxGeometry x="100" width="33" height="37" as="geometry" />
        </mxCell>
        <mxCell id="mH-_44QPLBYqhJ9qM-qt-147" value="7" style="shape=partialRectangle;html=1;whiteSpace=wrap;connectable=0;overflow=hidden;fillColor=none;top=0;left=0;bottom=0;right=0;fontFamily=Annie Use Your Telescope;fontSource=https%3A%2F%2Ffonts.googleapis.com%2Fcss%3Ffamily%3DAnnie%2BUse%2BYour%2BTelescope;fontStyle=1;fontSize=20;" vertex="1" parent="mH-_44QPLBYqhJ9qM-qt-142">
          <mxGeometry x="133" width="33" height="37" as="geometry" />
        </mxCell>
        <mxCell id="mH-_44QPLBYqhJ9qM-qt-148" value="7" style="shape=partialRectangle;html=1;whiteSpace=wrap;connectable=0;overflow=hidden;fillColor=none;top=0;left=0;bottom=0;right=0;fontFamily=Annie Use Your Telescope;fontSource=https%3A%2F%2Ffonts.googleapis.com%2Fcss%3Ffamily%3DAnnie%2BUse%2BYour%2BTelescope;fontStyle=1;fontSize=20;" vertex="1" parent="mH-_44QPLBYqhJ9qM-qt-142">
          <mxGeometry x="166" width="34" height="37" as="geometry" />
        </mxCell>
        <mxCell id="mH-_44QPLBYqhJ9qM-qt-149" value="8" style="shape=partialRectangle;html=1;whiteSpace=wrap;connectable=0;overflow=hidden;fillColor=none;top=0;left=0;bottom=0;right=0;fontFamily=Annie Use Your Telescope;fontSource=https%3A%2F%2Ffonts.googleapis.com%2Fcss%3Ffamily%3DAnnie%2BUse%2BYour%2BTelescope;fontStyle=1;fontSize=20;" vertex="1" parent="mH-_44QPLBYqhJ9qM-qt-142">
          <mxGeometry x="200" width="33" height="37" as="geometry" />
        </mxCell>
        <mxCell id="mH-_44QPLBYqhJ9qM-qt-150" value="7" style="shape=partialRectangle;html=1;whiteSpace=wrap;connectable=0;overflow=hidden;fillColor=none;top=0;left=0;bottom=0;right=0;fontFamily=Annie Use Your Telescope;fontSource=https%3A%2F%2Ffonts.googleapis.com%2Fcss%3Ffamily%3DAnnie%2BUse%2BYour%2BTelescope;fontStyle=1;fontSize=20;" vertex="1" parent="mH-_44QPLBYqhJ9qM-qt-142">
          <mxGeometry x="233" width="34" height="37" as="geometry" />
        </mxCell>
        <mxCell id="mH-_44QPLBYqhJ9qM-qt-151" value="9" style="shape=partialRectangle;html=1;whiteSpace=wrap;connectable=0;overflow=hidden;fillColor=none;top=0;left=0;bottom=0;right=0;fontFamily=Annie Use Your Telescope;fontSource=https%3A%2F%2Ffonts.googleapis.com%2Fcss%3Ffamily%3DAnnie%2BUse%2BYour%2BTelescope;fontStyle=1;fontSize=20;" vertex="1" parent="mH-_44QPLBYqhJ9qM-qt-142">
          <mxGeometry x="267" width="33" height="37" as="geometry" />
        </mxCell>
        <mxCell id="mH-_44QPLBYqhJ9qM-qt-152" value="" style="shape=partialRectangle;collapsible=0;dropTarget=0;pointerEvents=0;fillColor=none;top=0;left=0;bottom=0;right=0;points=[[0,0.5],[1,0.5]];portConstraint=eastwest;fontFamily=Annie Use Your Telescope;fontSource=https%3A%2F%2Ffonts.googleapis.com%2Fcss%3Ffamily%3DAnnie%2BUse%2BYour%2BTelescope;fontStyle=1;fontSize=20;" vertex="1" parent="mH-_44QPLBYqhJ9qM-qt-1">
          <mxGeometry y="548" width="300" height="36" as="geometry" />
        </mxCell>
        <mxCell id="mH-_44QPLBYqhJ9qM-qt-153" value="8" style="shape=partialRectangle;html=1;whiteSpace=wrap;connectable=0;overflow=hidden;fillColor=none;top=0;left=0;bottom=0;right=0;fontFamily=Annie Use Your Telescope;fontSource=https%3A%2F%2Ffonts.googleapis.com%2Fcss%3Ffamily%3DAnnie%2BUse%2BYour%2BTelescope;fontStyle=1;fontSize=20;" vertex="1" parent="mH-_44QPLBYqhJ9qM-qt-152">
          <mxGeometry width="33" height="36" as="geometry" />
        </mxCell>
        <mxCell id="mH-_44QPLBYqhJ9qM-qt-154" value="1" style="shape=partialRectangle;html=1;whiteSpace=wrap;connectable=0;overflow=hidden;fillColor=none;top=0;left=0;bottom=0;right=0;fontFamily=Annie Use Your Telescope;fontSource=https%3A%2F%2Ffonts.googleapis.com%2Fcss%3Ffamily%3DAnnie%2BUse%2BYour%2BTelescope;fontStyle=1;fontSize=20;" vertex="1" parent="mH-_44QPLBYqhJ9qM-qt-152">
          <mxGeometry x="33" width="34" height="36" as="geometry" />
        </mxCell>
        <mxCell id="mH-_44QPLBYqhJ9qM-qt-155" value="8" style="shape=partialRectangle;html=1;whiteSpace=wrap;connectable=0;overflow=hidden;fillColor=none;top=0;left=0;bottom=0;right=0;fontFamily=Annie Use Your Telescope;fontSource=https%3A%2F%2Ffonts.googleapis.com%2Fcss%3Ffamily%3DAnnie%2BUse%2BYour%2BTelescope;fontStyle=1;fontSize=20;" vertex="1" parent="mH-_44QPLBYqhJ9qM-qt-152">
          <mxGeometry x="67" width="33" height="36" as="geometry" />
        </mxCell>
        <mxCell id="mH-_44QPLBYqhJ9qM-qt-156" value="2" style="shape=partialRectangle;html=1;whiteSpace=wrap;connectable=0;overflow=hidden;fillColor=none;top=0;left=0;bottom=0;right=0;fontFamily=Annie Use Your Telescope;fontSource=https%3A%2F%2Ffonts.googleapis.com%2Fcss%3Ffamily%3DAnnie%2BUse%2BYour%2BTelescope;fontStyle=1;fontSize=20;" vertex="1" parent="mH-_44QPLBYqhJ9qM-qt-152">
          <mxGeometry x="100" width="33" height="36" as="geometry" />
        </mxCell>
        <mxCell id="mH-_44QPLBYqhJ9qM-qt-157" value="8" style="shape=partialRectangle;html=1;whiteSpace=wrap;connectable=0;overflow=hidden;fillColor=none;top=0;left=0;bottom=0;right=0;fontFamily=Annie Use Your Telescope;fontSource=https%3A%2F%2Ffonts.googleapis.com%2Fcss%3Ffamily%3DAnnie%2BUse%2BYour%2BTelescope;fontStyle=1;fontSize=20;" vertex="1" parent="mH-_44QPLBYqhJ9qM-qt-152">
          <mxGeometry x="133" width="33" height="36" as="geometry" />
        </mxCell>
        <mxCell id="mH-_44QPLBYqhJ9qM-qt-158" value="3" style="shape=partialRectangle;html=1;whiteSpace=wrap;connectable=0;overflow=hidden;fillColor=none;top=0;left=0;bottom=0;right=0;fontFamily=Annie Use Your Telescope;fontSource=https%3A%2F%2Ffonts.googleapis.com%2Fcss%3Ffamily%3DAnnie%2BUse%2BYour%2BTelescope;fontStyle=1;fontSize=20;" vertex="1" parent="mH-_44QPLBYqhJ9qM-qt-152">
          <mxGeometry x="166" width="34" height="36" as="geometry" />
        </mxCell>
        <mxCell id="mH-_44QPLBYqhJ9qM-qt-159" value="8" style="shape=partialRectangle;html=1;whiteSpace=wrap;connectable=0;overflow=hidden;fillColor=none;top=0;left=0;bottom=0;right=0;fontFamily=Annie Use Your Telescope;fontSource=https%3A%2F%2Ffonts.googleapis.com%2Fcss%3Ffamily%3DAnnie%2BUse%2BYour%2BTelescope;fontStyle=1;fontSize=20;" vertex="1" parent="mH-_44QPLBYqhJ9qM-qt-152">
          <mxGeometry x="200" width="33" height="36" as="geometry" />
        </mxCell>
        <mxCell id="mH-_44QPLBYqhJ9qM-qt-160" value="4" style="shape=partialRectangle;html=1;whiteSpace=wrap;connectable=0;overflow=hidden;fillColor=none;top=0;left=0;bottom=0;right=0;fontFamily=Annie Use Your Telescope;fontSource=https%3A%2F%2Ffonts.googleapis.com%2Fcss%3Ffamily%3DAnnie%2BUse%2BYour%2BTelescope;fontStyle=1;fontSize=20;" vertex="1" parent="mH-_44QPLBYqhJ9qM-qt-152">
          <mxGeometry x="233" width="34" height="36" as="geometry" />
        </mxCell>
        <mxCell id="mH-_44QPLBYqhJ9qM-qt-161" value="8" style="shape=partialRectangle;html=1;whiteSpace=wrap;connectable=0;overflow=hidden;fillColor=none;top=0;left=0;bottom=0;right=0;fontFamily=Annie Use Your Telescope;fontSource=https%3A%2F%2Ffonts.googleapis.com%2Fcss%3Ffamily%3DAnnie%2BUse%2BYour%2BTelescope;fontStyle=1;fontSize=20;" vertex="1" parent="mH-_44QPLBYqhJ9qM-qt-152">
          <mxGeometry x="267" width="33" height="36" as="geometry" />
        </mxCell>
        <mxCell id="mH-_44QPLBYqhJ9qM-qt-162" value="" style="shape=partialRectangle;collapsible=0;dropTarget=0;pointerEvents=0;fillColor=none;top=0;left=0;bottom=0;right=0;points=[[0,0.5],[1,0.5]];portConstraint=eastwest;fontFamily=Annie Use Your Telescope;fontSource=https%3A%2F%2Ffonts.googleapis.com%2Fcss%3Ffamily%3DAnnie%2BUse%2BYour%2BTelescope;fontStyle=1;fontSize=20;" vertex="1" parent="mH-_44QPLBYqhJ9qM-qt-1">
          <mxGeometry y="584" width="300" height="37" as="geometry" />
        </mxCell>
        <mxCell id="mH-_44QPLBYqhJ9qM-qt-163" value="5" style="shape=partialRectangle;html=1;whiteSpace=wrap;connectable=0;overflow=hidden;fillColor=none;top=0;left=0;bottom=0;right=0;fontFamily=Annie Use Your Telescope;fontSource=https%3A%2F%2Ffonts.googleapis.com%2Fcss%3Ffamily%3DAnnie%2BUse%2BYour%2BTelescope;fontStyle=1;fontSize=20;" vertex="1" parent="mH-_44QPLBYqhJ9qM-qt-162">
          <mxGeometry width="33" height="37" as="geometry" />
        </mxCell>
        <mxCell id="mH-_44QPLBYqhJ9qM-qt-164" value="8" style="shape=partialRectangle;html=1;whiteSpace=wrap;connectable=0;overflow=hidden;fillColor=none;top=0;left=0;bottom=0;right=0;fontFamily=Annie Use Your Telescope;fontSource=https%3A%2F%2Ffonts.googleapis.com%2Fcss%3Ffamily%3DAnnie%2BUse%2BYour%2BTelescope;fontStyle=1;fontSize=20;" vertex="1" parent="mH-_44QPLBYqhJ9qM-qt-162">
          <mxGeometry x="33" width="34" height="37" as="geometry" />
        </mxCell>
        <mxCell id="mH-_44QPLBYqhJ9qM-qt-165" value="6" style="shape=partialRectangle;html=1;whiteSpace=wrap;connectable=0;overflow=hidden;fillColor=none;top=0;left=0;bottom=0;right=0;fontFamily=Annie Use Your Telescope;fontSource=https%3A%2F%2Ffonts.googleapis.com%2Fcss%3Ffamily%3DAnnie%2BUse%2BYour%2BTelescope;fontStyle=1;fontSize=20;" vertex="1" parent="mH-_44QPLBYqhJ9qM-qt-162">
          <mxGeometry x="67" width="33" height="37" as="geometry" />
        </mxCell>
        <mxCell id="mH-_44QPLBYqhJ9qM-qt-166" value="8" style="shape=partialRectangle;html=1;whiteSpace=wrap;connectable=0;overflow=hidden;fillColor=none;top=0;left=0;bottom=0;right=0;fontFamily=Annie Use Your Telescope;fontSource=https%3A%2F%2Ffonts.googleapis.com%2Fcss%3Ffamily%3DAnnie%2BUse%2BYour%2BTelescope;fontStyle=1;fontSize=20;" vertex="1" parent="mH-_44QPLBYqhJ9qM-qt-162">
          <mxGeometry x="100" width="33" height="37" as="geometry" />
        </mxCell>
        <mxCell id="mH-_44QPLBYqhJ9qM-qt-167" value="7" style="shape=partialRectangle;html=1;whiteSpace=wrap;connectable=0;overflow=hidden;fillColor=none;top=0;left=0;bottom=0;right=0;fontFamily=Annie Use Your Telescope;fontSource=https%3A%2F%2Ffonts.googleapis.com%2Fcss%3Ffamily%3DAnnie%2BUse%2BYour%2BTelescope;fontStyle=1;fontSize=20;" vertex="1" parent="mH-_44QPLBYqhJ9qM-qt-162">
          <mxGeometry x="133" width="33" height="37" as="geometry" />
        </mxCell>
        <mxCell id="mH-_44QPLBYqhJ9qM-qt-168" value="8" style="shape=partialRectangle;html=1;whiteSpace=wrap;connectable=0;overflow=hidden;fillColor=none;top=0;left=0;bottom=0;right=0;fontFamily=Annie Use Your Telescope;fontSource=https%3A%2F%2Ffonts.googleapis.com%2Fcss%3Ffamily%3DAnnie%2BUse%2BYour%2BTelescope;fontStyle=1;fontSize=20;" vertex="1" parent="mH-_44QPLBYqhJ9qM-qt-162">
          <mxGeometry x="166" width="34" height="37" as="geometry" />
        </mxCell>
        <mxCell id="mH-_44QPLBYqhJ9qM-qt-169" value="8" style="shape=partialRectangle;html=1;whiteSpace=wrap;connectable=0;overflow=hidden;fillColor=none;top=0;left=0;bottom=0;right=0;fontFamily=Annie Use Your Telescope;fontSource=https%3A%2F%2Ffonts.googleapis.com%2Fcss%3Ffamily%3DAnnie%2BUse%2BYour%2BTelescope;fontStyle=1;fontSize=20;" vertex="1" parent="mH-_44QPLBYqhJ9qM-qt-162">
          <mxGeometry x="200" width="33" height="37" as="geometry" />
        </mxCell>
        <mxCell id="mH-_44QPLBYqhJ9qM-qt-170" value="8" style="shape=partialRectangle;html=1;whiteSpace=wrap;connectable=0;overflow=hidden;fillColor=none;top=0;left=0;bottom=0;right=0;fontFamily=Annie Use Your Telescope;fontSource=https%3A%2F%2Ffonts.googleapis.com%2Fcss%3Ffamily%3DAnnie%2BUse%2BYour%2BTelescope;fontStyle=1;fontSize=20;" vertex="1" parent="mH-_44QPLBYqhJ9qM-qt-162">
          <mxGeometry x="233" width="34" height="37" as="geometry" />
        </mxCell>
        <mxCell id="mH-_44QPLBYqhJ9qM-qt-171" value="9" style="shape=partialRectangle;html=1;whiteSpace=wrap;connectable=0;overflow=hidden;fillColor=none;top=0;left=0;bottom=0;right=0;fontFamily=Annie Use Your Telescope;fontSource=https%3A%2F%2Ffonts.googleapis.com%2Fcss%3Ffamily%3DAnnie%2BUse%2BYour%2BTelescope;fontStyle=1;fontSize=20;" vertex="1" parent="mH-_44QPLBYqhJ9qM-qt-162">
          <mxGeometry x="267" width="33" height="37" as="geometry" />
        </mxCell>
        <mxCell id="mH-_44QPLBYqhJ9qM-qt-172" value="" style="shape=partialRectangle;collapsible=0;dropTarget=0;pointerEvents=0;fillColor=none;top=0;left=0;bottom=0;right=0;points=[[0,0.5],[1,0.5]];portConstraint=eastwest;fontFamily=Annie Use Your Telescope;fontSource=https%3A%2F%2Ffonts.googleapis.com%2Fcss%3Ffamily%3DAnnie%2BUse%2BYour%2BTelescope;fontStyle=1;fontSize=20;" vertex="1" parent="mH-_44QPLBYqhJ9qM-qt-1">
          <mxGeometry y="621" width="300" height="36" as="geometry" />
        </mxCell>
        <mxCell id="mH-_44QPLBYqhJ9qM-qt-173" value="9" style="shape=partialRectangle;html=1;whiteSpace=wrap;connectable=0;overflow=hidden;fillColor=none;top=0;left=0;bottom=0;right=0;fontFamily=Annie Use Your Telescope;fontSource=https%3A%2F%2Ffonts.googleapis.com%2Fcss%3Ffamily%3DAnnie%2BUse%2BYour%2BTelescope;fontStyle=1;fontSize=20;" vertex="1" parent="mH-_44QPLBYqhJ9qM-qt-172">
          <mxGeometry width="33" height="36" as="geometry" />
        </mxCell>
        <mxCell id="mH-_44QPLBYqhJ9qM-qt-174" value="1" style="shape=partialRectangle;html=1;whiteSpace=wrap;connectable=0;overflow=hidden;fillColor=none;top=0;left=0;bottom=0;right=0;fontFamily=Annie Use Your Telescope;fontSource=https%3A%2F%2Ffonts.googleapis.com%2Fcss%3Ffamily%3DAnnie%2BUse%2BYour%2BTelescope;fontStyle=1;fontSize=20;" vertex="1" parent="mH-_44QPLBYqhJ9qM-qt-172">
          <mxGeometry x="33" width="34" height="36" as="geometry" />
        </mxCell>
        <mxCell id="mH-_44QPLBYqhJ9qM-qt-175" value="9" style="shape=partialRectangle;html=1;whiteSpace=wrap;connectable=0;overflow=hidden;fillColor=none;top=0;left=0;bottom=0;right=0;fontFamily=Annie Use Your Telescope;fontSource=https%3A%2F%2Ffonts.googleapis.com%2Fcss%3Ffamily%3DAnnie%2BUse%2BYour%2BTelescope;fontStyle=1;fontSize=20;" vertex="1" parent="mH-_44QPLBYqhJ9qM-qt-172">
          <mxGeometry x="67" width="33" height="36" as="geometry" />
        </mxCell>
        <mxCell id="mH-_44QPLBYqhJ9qM-qt-176" value="2" style="shape=partialRectangle;html=1;whiteSpace=wrap;connectable=0;overflow=hidden;fillColor=none;top=0;left=0;bottom=0;right=0;fontFamily=Annie Use Your Telescope;fontSource=https%3A%2F%2Ffonts.googleapis.com%2Fcss%3Ffamily%3DAnnie%2BUse%2BYour%2BTelescope;fontStyle=1;fontSize=20;" vertex="1" parent="mH-_44QPLBYqhJ9qM-qt-172">
          <mxGeometry x="100" width="33" height="36" as="geometry" />
        </mxCell>
        <mxCell id="mH-_44QPLBYqhJ9qM-qt-177" value="9" style="shape=partialRectangle;html=1;whiteSpace=wrap;connectable=0;overflow=hidden;fillColor=none;top=0;left=0;bottom=0;right=0;fontFamily=Annie Use Your Telescope;fontSource=https%3A%2F%2Ffonts.googleapis.com%2Fcss%3Ffamily%3DAnnie%2BUse%2BYour%2BTelescope;fontStyle=1;fontSize=20;" vertex="1" parent="mH-_44QPLBYqhJ9qM-qt-172">
          <mxGeometry x="133" width="33" height="36" as="geometry" />
        </mxCell>
        <mxCell id="mH-_44QPLBYqhJ9qM-qt-178" value="3" style="shape=partialRectangle;html=1;whiteSpace=wrap;connectable=0;overflow=hidden;fillColor=none;top=0;left=0;bottom=0;right=0;fontFamily=Annie Use Your Telescope;fontSource=https%3A%2F%2Ffonts.googleapis.com%2Fcss%3Ffamily%3DAnnie%2BUse%2BYour%2BTelescope;fontStyle=1;fontSize=20;" vertex="1" parent="mH-_44QPLBYqhJ9qM-qt-172">
          <mxGeometry x="166" width="34" height="36" as="geometry" />
        </mxCell>
        <mxCell id="mH-_44QPLBYqhJ9qM-qt-179" value="9" style="shape=partialRectangle;html=1;whiteSpace=wrap;connectable=0;overflow=hidden;fillColor=none;top=0;left=0;bottom=0;right=0;fontFamily=Annie Use Your Telescope;fontSource=https%3A%2F%2Ffonts.googleapis.com%2Fcss%3Ffamily%3DAnnie%2BUse%2BYour%2BTelescope;fontStyle=1;fontSize=20;" vertex="1" parent="mH-_44QPLBYqhJ9qM-qt-172">
          <mxGeometry x="200" width="33" height="36" as="geometry" />
        </mxCell>
        <mxCell id="mH-_44QPLBYqhJ9qM-qt-180" value="4" style="shape=partialRectangle;html=1;whiteSpace=wrap;connectable=0;overflow=hidden;fillColor=none;top=0;left=0;bottom=0;right=0;fontFamily=Annie Use Your Telescope;fontSource=https%3A%2F%2Ffonts.googleapis.com%2Fcss%3Ffamily%3DAnnie%2BUse%2BYour%2BTelescope;fontStyle=1;fontSize=20;" vertex="1" parent="mH-_44QPLBYqhJ9qM-qt-172">
          <mxGeometry x="233" width="34" height="36" as="geometry" />
        </mxCell>
        <mxCell id="mH-_44QPLBYqhJ9qM-qt-181" value="9" style="shape=partialRectangle;html=1;whiteSpace=wrap;connectable=0;overflow=hidden;fillColor=none;top=0;left=0;bottom=0;right=0;fontFamily=Annie Use Your Telescope;fontSource=https%3A%2F%2Ffonts.googleapis.com%2Fcss%3Ffamily%3DAnnie%2BUse%2BYour%2BTelescope;fontStyle=1;fontSize=20;" vertex="1" parent="mH-_44QPLBYqhJ9qM-qt-172">
          <mxGeometry x="267" width="33" height="36" as="geometry" />
        </mxCell>
        <mxCell id="mH-_44QPLBYqhJ9qM-qt-182" value="" style="shape=partialRectangle;collapsible=0;dropTarget=0;pointerEvents=0;fillColor=none;top=0;left=0;bottom=0;right=0;points=[[0,0.5],[1,0.5]];portConstraint=eastwest;fontFamily=Annie Use Your Telescope;fontSource=https%3A%2F%2Ffonts.googleapis.com%2Fcss%3Ffamily%3DAnnie%2BUse%2BYour%2BTelescope;fontStyle=1;fontSize=20;" vertex="1" parent="mH-_44QPLBYqhJ9qM-qt-1">
          <mxGeometry y="657" width="300" height="37" as="geometry" />
        </mxCell>
        <mxCell id="mH-_44QPLBYqhJ9qM-qt-183" value="5" style="shape=partialRectangle;html=1;whiteSpace=wrap;connectable=0;overflow=hidden;fillColor=none;top=0;left=0;bottom=0;right=0;fontFamily=Annie Use Your Telescope;fontSource=https%3A%2F%2Ffonts.googleapis.com%2Fcss%3Ffamily%3DAnnie%2BUse%2BYour%2BTelescope;fontStyle=1;fontSize=20;" vertex="1" parent="mH-_44QPLBYqhJ9qM-qt-182">
          <mxGeometry width="33" height="37" as="geometry" />
        </mxCell>
        <mxCell id="mH-_44QPLBYqhJ9qM-qt-184" value="9" style="shape=partialRectangle;html=1;whiteSpace=wrap;connectable=0;overflow=hidden;fillColor=none;top=0;left=0;bottom=0;right=0;fontFamily=Annie Use Your Telescope;fontSource=https%3A%2F%2Ffonts.googleapis.com%2Fcss%3Ffamily%3DAnnie%2BUse%2BYour%2BTelescope;fontStyle=1;fontSize=20;" vertex="1" parent="mH-_44QPLBYqhJ9qM-qt-182">
          <mxGeometry x="33" width="34" height="37" as="geometry" />
        </mxCell>
        <mxCell id="mH-_44QPLBYqhJ9qM-qt-185" value="6" style="shape=partialRectangle;html=1;whiteSpace=wrap;connectable=0;overflow=hidden;fillColor=none;top=0;left=0;bottom=0;right=0;fontFamily=Annie Use Your Telescope;fontSource=https%3A%2F%2Ffonts.googleapis.com%2Fcss%3Ffamily%3DAnnie%2BUse%2BYour%2BTelescope;fontStyle=1;fontSize=20;" vertex="1" parent="mH-_44QPLBYqhJ9qM-qt-182">
          <mxGeometry x="67" width="33" height="37" as="geometry" />
        </mxCell>
        <mxCell id="mH-_44QPLBYqhJ9qM-qt-186" value="9" style="shape=partialRectangle;html=1;whiteSpace=wrap;connectable=0;overflow=hidden;fillColor=none;top=0;left=0;bottom=0;right=0;fontFamily=Annie Use Your Telescope;fontSource=https%3A%2F%2Ffonts.googleapis.com%2Fcss%3Ffamily%3DAnnie%2BUse%2BYour%2BTelescope;fontStyle=1;fontSize=20;" vertex="1" parent="mH-_44QPLBYqhJ9qM-qt-182">
          <mxGeometry x="100" width="33" height="37" as="geometry" />
        </mxCell>
        <mxCell id="mH-_44QPLBYqhJ9qM-qt-187" value="7" style="shape=partialRectangle;html=1;whiteSpace=wrap;connectable=0;overflow=hidden;fillColor=none;top=0;left=0;bottom=0;right=0;fontFamily=Annie Use Your Telescope;fontSource=https%3A%2F%2Ffonts.googleapis.com%2Fcss%3Ffamily%3DAnnie%2BUse%2BYour%2BTelescope;fontStyle=1;fontSize=20;" vertex="1" parent="mH-_44QPLBYqhJ9qM-qt-182">
          <mxGeometry x="133" width="33" height="37" as="geometry" />
        </mxCell>
        <mxCell id="mH-_44QPLBYqhJ9qM-qt-188" value="9" style="shape=partialRectangle;html=1;whiteSpace=wrap;connectable=0;overflow=hidden;fillColor=none;top=0;left=0;bottom=0;right=0;fontFamily=Annie Use Your Telescope;fontSource=https%3A%2F%2Ffonts.googleapis.com%2Fcss%3Ffamily%3DAnnie%2BUse%2BYour%2BTelescope;fontStyle=1;fontSize=20;" vertex="1" parent="mH-_44QPLBYqhJ9qM-qt-182">
          <mxGeometry x="166" width="34" height="37" as="geometry" />
        </mxCell>
        <mxCell id="mH-_44QPLBYqhJ9qM-qt-189" value="8" style="shape=partialRectangle;html=1;whiteSpace=wrap;connectable=0;overflow=hidden;fillColor=none;top=0;left=0;bottom=0;right=0;fontFamily=Annie Use Your Telescope;fontSource=https%3A%2F%2Ffonts.googleapis.com%2Fcss%3Ffamily%3DAnnie%2BUse%2BYour%2BTelescope;fontStyle=1;fontSize=20;" vertex="1" parent="mH-_44QPLBYqhJ9qM-qt-182">
          <mxGeometry x="200" width="33" height="37" as="geometry" />
        </mxCell>
        <mxCell id="mH-_44QPLBYqhJ9qM-qt-190" value="9" style="shape=partialRectangle;html=1;whiteSpace=wrap;connectable=0;overflow=hidden;fillColor=none;top=0;left=0;bottom=0;right=0;fontFamily=Annie Use Your Telescope;fontSource=https%3A%2F%2Ffonts.googleapis.com%2Fcss%3Ffamily%3DAnnie%2BUse%2BYour%2BTelescope;fontStyle=1;fontSize=20;" vertex="1" parent="mH-_44QPLBYqhJ9qM-qt-182">
          <mxGeometry x="233" width="34" height="37" as="geometry" />
        </mxCell>
        <mxCell id="mH-_44QPLBYqhJ9qM-qt-191" value="9" style="shape=partialRectangle;html=1;whiteSpace=wrap;connectable=0;overflow=hidden;fillColor=none;top=0;left=0;bottom=0;right=0;fontFamily=Annie Use Your Telescope;fontSource=https%3A%2F%2Ffonts.googleapis.com%2Fcss%3Ffamily%3DAnnie%2BUse%2BYour%2BTelescope;fontStyle=1;fontSize=20;" vertex="1" parent="mH-_44QPLBYqhJ9qM-qt-182">
          <mxGeometry x="267" width="33" height="37" as="geometry" />
        </mxCell>
        <mxCell id="mH-_44QPLBYqhJ9qM-qt-203" value="&lt;b&gt;&lt;font color=&quot;#ffffff&quot; style=&quot;font-size: 14px&quot;&gt;START&lt;/font&gt;&lt;/b&gt;" style="rounded=0;whiteSpace=wrap;html=1;fillColor=#EBABAE;strokeWidth=3;strokeColor=#CCCCCC;shadow=1;" vertex="1" parent="1">
          <mxGeometry x="160" y="200" width="130" height="40" as="geometry" />
        </mxCell>
        <mxCell id="mH-_44QPLBYqhJ9qM-qt-204" value="&lt;b style=&quot;background-color: rgb(235 , 171 , 174)&quot;&gt;&lt;font color=&quot;#ffffff&quot; style=&quot;font-size: 14px&quot;&gt;ADD ROWS&lt;/font&gt;&lt;/b&gt;" style="rounded=0;whiteSpace=wrap;html=1;fillColor=#EBABAE;strokeWidth=3;strokeColor=#CCCCCC;shadow=1;" vertex="1" parent="1">
          <mxGeometry x="55" y="340" width="130" height="40" as="geometry" />
        </mxCell>
        <mxCell id="mH-_44QPLBYqhJ9qM-qt-205" value="&lt;b&gt;&lt;font color=&quot;#ffffff&quot; style=&quot;font-size: 14px&quot;&gt;FAST GAME&lt;/font&gt;&lt;/b&gt;" style="rounded=0;whiteSpace=wrap;html=1;fillColor=#EBABAE;labelBorderColor=none;strokeWidth=3;strokeColor=#CCCCCC;shadow=1;" vertex="1" parent="1">
          <mxGeometry x="560" y="200" width="130" height="40" as="geometry" />
        </mxCell>
        <mxCell id="mH-_44QPLBYqhJ9qM-qt-207" value="&lt;font face=&quot;Annie Use Your Telescope&quot; data-font-src=&quot;https://fonts.googleapis.com/css?family=Annie+Use+Your+Telescope&quot; style=&quot;font-size: 50px&quot; color=&quot;#ffffff&quot;&gt;NUMBERS GAME&lt;/font&gt;" style="text;html=1;strokeColor=none;fillColor=none;align=center;verticalAlign=middle;whiteSpace=wrap;rounded=0;shadow=1;" vertex="1" parent="1">
          <mxGeometry x="210" y="90" width="405" height="60" as="geometry" />
        </mxCell>
        <mxCell id="mH-_44QPLBYqhJ9qM-qt-208" value="&lt;b&gt;&lt;font color=&quot;#ffffff&quot; style=&quot;font-size: 14px&quot;&gt;RESET&lt;/font&gt;&lt;/b&gt;" style="rounded=0;whiteSpace=wrap;html=1;fillColor=#EBABAE;strokeWidth=3;strokeColor=#CCCCCC;shadow=1;" vertex="1" parent="1">
          <mxGeometry x="55" y="480" width="130" height="40" as="geometry" />
        </mxCell>
        <mxCell id="NroqqnL1g8Yp_Ha-JOvD-2" value="&lt;b&gt;&lt;font color=&quot;#ffffff&quot; style=&quot;font-size: 14px&quot;&gt;TIMER: 00:00&lt;/font&gt;&lt;/b&gt;" style="rounded=0;whiteSpace=wrap;html=1;fillColor=#EBABAE;strokeWidth=3;strokeColor=#CCCCCC;shadow=1;" vertex="1" parent="1">
          <mxGeometry x="355" y="200" width="130" height="40" as="geometry" />
        </mxCell>
        <mxCell id="NroqqnL1g8Yp_Ha-JOvD-4" value="&lt;font color=&quot;#ffffff&quot;&gt;&lt;span style=&quot;font-size: 14px&quot;&gt;&lt;b&gt;BACKGROUND&lt;/b&gt;&lt;/span&gt;&lt;/font&gt;" style="rounded=0;whiteSpace=wrap;html=1;fillColor=#EBABAE;strokeWidth=3;strokeColor=#CCCCCC;shadow=1;" vertex="1" parent="1">
          <mxGeometry x="55" y="410" width="130" height="40" as="geometry" />
        </mxCell>
      </root>
    </mxGraphModel>
  </diagram>
  <diagram id="rtan303gJHDjqPfGtwJQ" name="Page-2">
    <mxGraphModel dx="1277" dy="1044" grid="1" gridSize="10" guides="1" tooltips="1" connect="1" arrows="1" fold="1" page="1" pageScale="1" pageWidth="850" pageHeight="1100" math="0" shadow="0">
      <root>
        <mxCell id="EjRO7rzDbfy4qBww2dka-0" />
        <mxCell id="EjRO7rzDbfy4qBww2dka-1" parent="EjRO7rzDbfy4qBww2dka-0" />
      </root>
    </mxGraphModel>
  </diagram>
</mxfile>
